<svg width="360" height="41" viewBox="0 0 360 41" fill="none" xmlns="http://www.w3.org/2000/svg">
<ellipse cx="100" cy="20.004" rx="20" ry="20.004" fill="#E2E2E2"/>
<path d="M105 9.02539H95C92.2386 9.02539 90 11.264 90 14.0254V24.0254C90 26.7868 92.2386 29.0254 95 29.0254H105C107.761 29.0254 110 26.7868 110 24.0254V14.0254C110 11.264 107.761 9.02539 105 9.02539Z" stroke="#383638" stroke-width="2" stroke-linecap="round" stroke-linejoin="round"/>
<path d="M104 18.3954C104.123 19.2277 103.981 20.0777 103.594 20.8245C103.206 21.5713 102.593 22.1769 101.842 22.5551C101.09 22.9334 100.238 23.065 99.4077 22.9314C98.5771 22.7977 97.8097 22.4055 97.2148 21.8106C96.6199 21.2157 96.2277 20.4483 96.094 19.6177C95.9604 18.787 96.092 17.9353 96.4703 17.1838C96.8485 16.4323 97.4541 15.8192 98.2009 15.4317C98.9477 15.0442 99.7977 14.902 100.63 15.0254C101.479 15.1513 102.265 15.5469 102.872 16.1538C103.478 16.7606 103.874 17.5465 104 18.3954Z" stroke="#383638" stroke-width="2" stroke-linecap="round" stroke-linejoin="round"/>
<path d="M105.5 13.5254H105.51" stroke="#383638" stroke-width="2" stroke-linecap="round" stroke-linejoin="round"/>
<ellipse cx="340" cy="20.004" rx="20" ry="20.004" fill="#E2E2E2"/>
<path d="M351 10.0254C350.042 10.7009 348.982 11.2175 347.86 11.5554C347.258 10.8629 346.457 10.3721 345.567 10.1494C344.677 9.9266 343.739 9.98263 342.882 10.3099C342.025 10.6371 341.288 11.2198 340.773 11.9792C340.258 12.7385 339.988 13.6378 340 14.5554V15.5554C338.243 15.601 336.501 15.2112 334.931 14.4209C333.361 13.6305 332.01 12.4641 331 11.0254C331 11.0254 327 20.0254 336 24.0254C333.941 25.4234 331.487 26.1244 329 26.0254C338 31.0254 349 26.0254 349 14.5254C348.999 14.2469 348.972 13.969 348.92 13.6954C349.941 12.6889 350.661 11.4181 351 10.0254V10.0254Z" stroke="#383638" stroke-width="2" stroke-linecap="round" stroke-linejoin="round"/>
<ellipse cx="180" cy="20.004" rx="20" ry="20.004" fill="#E2E2E2"/>
<path d="M184 15.0254C185.591 15.0254 187.117 15.6575 188.243 16.7828C189.368 17.908 190 19.4341 190 21.0254V28.0254H186V21.0254C186 20.495 185.789 19.9863 185.414 19.6112C185.039 19.2361 184.53 19.0254 184 19.0254C183.47 19.0254 182.961 19.2361 182.586 19.6112C182.211 19.9863 182 20.495 182 21.0254V28.0254H178V21.0254C178 19.4341 178.632 17.908 179.757 16.7828C180.883 15.6575 182.409 15.0254 184 15.0254V15.0254Z" stroke="#383638" stroke-width="2" stroke-linecap="round" stroke-linejoin="round"/>
<path d="M174 16.0254H170V28.0254H174V16.0254Z" stroke="#383638" stroke-width="2" stroke-linecap="round" stroke-linejoin="round"/>
<path d="M172 13.0254C173.105 13.0254 174 12.13 174 11.0254C174 9.92082 173.105 9.02539 172 9.02539C170.895 9.02539 170 9.92082 170 11.0254C170 12.13 170.895 13.0254 172 13.0254Z" stroke="#383638" stroke-width="2" stroke-linecap="round" stroke-linejoin="round"/>
<circle cx="20" cy="20" r="20" fill="#E2E2E2"/>
<path d="M25 10H22C20.6739 10 19.4021 10.5268 18.4645 11.4645C17.5268 12.4021 17 13.6739 17 15V18H14V22H17V30H21V22H24L25 18H21V15C21 14.7348 21.1054 14.4804 21.2929 14.2929C21.4804 14.1054 21.7348 14 22 14H25V10Z" stroke="#383638" stroke-width="2" stroke-linecap="round" stroke-linejoin="round"/>
<ellipse cx="260" cy="20.004" rx="20" ry="20.004" fill="#E2E2E2"/>
<path d="M252 11.0254H268C269.1 11.0254 270 11.9254 270 13.0254V25.0254C270 26.1254 269.1 27.0254 268 27.0254H252C250.9 27.0254 250 26.1254 250 25.0254V13.0254C250 11.9254 250.9 11.0254 252 11.0254Z" stroke="#383638" stroke-width="2" stroke-linecap="round" stroke-linejoin="round"/>
<path d="M270 13.0254L260 20.0254L250 13.0254" stroke="#383638" stroke-width="2" stroke-linecap="round" stroke-linejoin="round"/>
</svg>
