<svg width="115" height="96" viewBox="0 0 115 96" fill="none" xmlns="http://www.w3.org/2000/svg">
<ellipse cx="3.13675" cy="29.485" rx="2.5" ry="2.62469" transform="rotate(-16.318 3.13675 29.485)" fill="#EC1AFF"/>
<ellipse cx="15.4387" cy="71.5056" rx="2.5" ry="2.62469" transform="rotate(-16.318 15.4387 71.5056)" fill="#EC1AFF"/>
<ellipse cx="39.0205" cy="18.9796" rx="2.5" ry="2.62469" transform="rotate(-16.318 39.0205 18.9796)" fill="#EC1AFF"/>
<ellipse cx="51.3225" cy="61.0003" rx="2.5" ry="2.62469" transform="rotate(-16.318 51.3225 61.0003)" fill="#EC1AFF"/>
<ellipse cx="74.9043" cy="8.47419" rx="2.5" ry="2.62469" transform="rotate(-16.318 74.9043 8.47419)" fill="#EC1AFF"/>
<ellipse cx="87.2066" cy="50.4948" rx="2.5" ry="2.62469" transform="rotate(-16.318 87.2066 50.4948)" fill="#EC1AFF"/>
<ellipse cx="9.28763" cy="50.4952" rx="2.5" ry="2.62469" transform="rotate(-16.318 9.28763 50.4952)" fill="#EC1AFF"/>
<ellipse cx="21.5896" cy="92.5156" rx="2.5" ry="2.62469" transform="rotate(-16.318 21.5896 92.5156)" fill="#EC1AFF"/>
<ellipse cx="45.1717" cy="39.9898" rx="2.5" ry="2.62469" transform="rotate(-16.318 45.1717 39.9898)" fill="#EC1AFF"/>
<ellipse cx="57.4734" cy="82.0102" rx="2.5" ry="2.62469" transform="rotate(-16.318 57.4734 82.0102)" fill="#EC1AFF"/>
<ellipse cx="81.0555" cy="29.4844" rx="2.5" ry="2.62469" transform="rotate(-16.318 81.0555 29.4844)" fill="#EC1AFF"/>
<ellipse cx="93.3575" cy="71.5048" rx="2.5" ry="2.62469" transform="rotate(-16.318 93.3575 71.5048)" fill="#EC1AFF"/>
<ellipse cx="21.0786" cy="24.2323" rx="2.5" ry="2.62469" transform="rotate(-16.318 21.0786 24.2323)" fill="#EC1AFF"/>
<ellipse cx="33.3806" cy="66.2529" rx="2.5" ry="2.62469" transform="rotate(-16.318 33.3806 66.2529)" fill="#EC1AFF"/>
<ellipse cx="56.9624" cy="13.7269" rx="2.5" ry="2.62469" transform="rotate(-16.318 56.9624 13.7269)" fill="#EC1AFF"/>
<ellipse cx="69.2644" cy="55.7476" rx="2.5" ry="2.62469" transform="rotate(-16.318 69.2644 55.7476)" fill="#EC1AFF"/>
<ellipse cx="92.8465" cy="3.22145" rx="2.5" ry="2.62469" transform="rotate(-16.318 92.8465 3.22145)" fill="#EC1AFF"/>
<ellipse cx="105.148" cy="45.2421" rx="2.5" ry="2.62469" transform="rotate(-16.318 105.148 45.2421)" fill="#EC1AFF"/>
<ellipse cx="27.2298" cy="45.2425" rx="2.5" ry="2.62469" transform="rotate(-16.318 27.2298 45.2425)" fill="#EC1AFF"/>
<ellipse cx="39.5315" cy="87.263" rx="2.5" ry="2.62469" transform="rotate(-16.318 39.5315 87.263)" fill="#EC1AFF"/>
<ellipse cx="63.1136" cy="34.7371" rx="2.5" ry="2.62469" transform="rotate(-16.318 63.1136 34.7371)" fill="#EC1AFF"/>
<ellipse cx="75.4156" cy="76.7575" rx="2.5" ry="2.62469" transform="rotate(-16.318 75.4156 76.7575)" fill="#EC1AFF"/>
<ellipse cx="98.9973" cy="24.2317" rx="2.5" ry="2.62469" transform="rotate(-16.318 98.9973 24.2317)" fill="#EC1AFF"/>
<ellipse cx="111.299" cy="66.2521" rx="2.5" ry="2.62469" transform="rotate(-16.318 111.299 66.2521)" fill="#EC1AFF"/>
</svg>
