<svg width="591" height="602" viewBox="0 0 591 602" fill="none" xmlns="http://www.w3.org/2000/svg">
<path d="M126.224 526.2C127.376 526.2 128.4 526.416 129.296 526.848C130.192 527.28 130.944 527.888 131.552 528.672C132.176 529.44 132.64 530.336 132.944 531.36C133.264 532.368 133.424 533.448 133.424 534.6C133.424 536.152 133.144 537.568 132.584 538.848C132.024 540.112 131.208 541.12 130.136 541.872C129.08 542.624 127.776 543 126.224 543H120.488C120.072 543 119.72 542.864 119.432 542.592C119.16 542.304 119.024 541.952 119.024 541.536V527.664C119.024 527.248 119.16 526.904 119.432 526.632C119.72 526.344 120.072 526.2 120.488 526.2H126.224ZM125.984 540.24C126.992 540.24 127.816 539.984 128.456 539.472C129.096 538.944 129.56 538.256 129.848 537.408C130.152 536.544 130.304 535.608 130.304 534.6C130.304 533.848 130.216 533.136 130.04 532.464C129.88 531.776 129.624 531.176 129.272 530.664C128.92 530.136 128.472 529.72 127.928 529.416C127.384 529.112 126.736 528.96 125.984 528.96H121.784L122.024 528.744V540.504L121.88 540.24H125.984ZM142.416 543.24C141.056 543.24 139.872 542.96 138.864 542.4C137.872 541.824 137.104 541.048 136.56 540.072C136.032 539.096 135.768 537.992 135.768 536.76C135.768 535.32 136.056 534.096 136.632 533.088C137.224 532.064 137.992 531.28 138.936 530.736C139.88 530.192 140.88 529.92 141.936 529.92C142.752 529.92 143.52 530.088 144.24 530.424C144.976 530.76 145.624 531.224 146.184 531.816C146.744 532.392 147.184 533.064 147.504 533.832C147.84 534.6 148.008 535.416 148.008 536.28C147.992 536.664 147.84 536.976 147.552 537.216C147.264 537.456 146.928 537.576 146.544 537.576H137.376L136.656 535.176H145.464L144.936 535.656V535.008C144.904 534.544 144.736 534.128 144.432 533.76C144.144 533.392 143.776 533.104 143.328 532.896C142.896 532.672 142.432 532.56 141.936 532.56C141.456 532.56 141.008 532.624 140.592 532.752C140.176 532.88 139.816 533.096 139.512 533.4C139.208 533.704 138.968 534.112 138.792 534.624C138.616 535.136 138.528 535.784 138.528 536.568C138.528 537.432 138.704 538.168 139.056 538.776C139.424 539.368 139.888 539.824 140.448 540.144C141.024 540.448 141.632 540.6 142.272 540.6C142.864 540.6 143.336 540.552 143.688 540.456C144.04 540.36 144.32 540.248 144.528 540.12C144.752 539.976 144.952 539.856 145.128 539.76C145.416 539.616 145.688 539.544 145.944 539.544C146.296 539.544 146.584 539.664 146.808 539.904C147.048 540.144 147.168 540.424 147.168 540.744C147.168 541.176 146.944 541.568 146.496 541.92C146.08 542.272 145.496 542.584 144.744 542.856C143.992 543.112 143.216 543.24 142.416 543.24ZM150.02 541.008C149.86 540.784 149.788 540.496 149.804 540.144C149.82 539.792 150.028 539.488 150.428 539.232C150.684 539.072 150.956 539.008 151.244 539.04C151.532 539.056 151.812 539.2 152.084 539.472C152.548 539.936 153.036 540.296 153.548 540.552C154.06 540.808 154.7 540.936 155.468 540.936C155.708 540.92 155.972 540.888 156.26 540.84C156.548 540.776 156.796 540.648 157.004 540.456C157.228 540.248 157.34 539.936 157.34 539.52C157.34 539.168 157.22 538.888 156.98 538.68C156.74 538.472 156.42 538.296 156.02 538.152C155.636 538.008 155.204 537.872 154.724 537.744C154.228 537.6 153.716 537.44 153.188 537.264C152.676 537.088 152.204 536.864 151.772 536.592C151.34 536.304 150.988 535.928 150.716 535.464C150.444 535 150.308 534.416 150.308 533.712C150.308 532.912 150.532 532.232 150.98 531.672C151.428 531.112 152.004 530.68 152.708 530.376C153.428 530.072 154.18 529.92 154.964 529.92C155.46 529.92 155.98 529.984 156.524 530.112C157.068 530.224 157.588 530.416 158.084 530.688C158.58 530.944 158.996 531.288 159.332 531.72C159.508 531.96 159.612 532.248 159.644 532.584C159.676 532.92 159.524 533.224 159.188 533.496C158.948 533.688 158.668 533.776 158.348 533.76C158.028 533.728 157.764 533.616 157.556 533.424C157.284 533.072 156.916 532.792 156.452 532.584C156.004 532.376 155.484 532.272 154.892 532.272C154.652 532.272 154.388 532.304 154.1 532.368C153.828 532.416 153.588 532.536 153.38 532.728C153.172 532.904 153.068 533.192 153.068 533.592C153.068 533.96 153.188 534.256 153.428 534.48C153.668 534.688 153.988 534.864 154.388 535.008C154.804 535.136 155.244 535.264 155.708 535.392C156.188 535.52 156.676 535.672 157.172 535.848C157.668 536.024 158.124 536.256 158.54 536.544C158.956 536.832 159.292 537.208 159.548 537.672C159.804 538.12 159.932 538.696 159.932 539.4C159.932 540.216 159.692 540.912 159.212 541.488C158.732 542.064 158.132 542.504 157.412 542.808C156.692 543.096 155.956 543.24 155.204 543.24C154.26 543.24 153.316 543.08 152.372 542.76C151.428 542.424 150.644 541.84 150.02 541.008ZM165.294 541.536C165.294 541.952 165.158 542.304 164.886 542.592C164.614 542.864 164.27 543 163.854 543C163.438 543 163.094 542.864 162.822 542.592C162.55 542.304 162.414 541.952 162.414 541.536V531.624C162.414 531.208 162.55 530.864 162.822 530.592C163.094 530.304 163.438 530.16 163.854 530.16C164.27 530.16 164.614 530.304 164.886 530.592C165.158 530.864 165.294 531.208 165.294 531.624V541.536ZM163.83 528.6C163.286 528.6 162.902 528.512 162.678 528.336C162.454 528.16 162.342 527.848 162.342 527.4V526.944C162.342 526.48 162.462 526.168 162.702 526.008C162.958 525.832 163.342 525.744 163.854 525.744C164.414 525.744 164.806 525.832 165.03 526.008C165.254 526.184 165.366 526.496 165.366 526.944V527.4C165.366 527.864 165.246 528.184 165.006 528.36C164.766 528.52 164.374 528.6 163.83 528.6ZM173.822 529.92C174.494 529.92 175.11 530.024 175.67 530.232C176.23 530.44 176.71 530.704 177.11 531.024C177.526 531.344 177.846 531.672 178.07 532.008C178.31 532.328 178.43 532.6 178.43 532.824L177.806 533.136V531.384C177.806 530.968 177.942 530.624 178.214 530.352C178.486 530.064 178.83 529.92 179.246 529.92C179.662 529.92 180.006 530.056 180.278 530.328C180.55 530.6 180.686 530.952 180.686 531.384V542.064C180.686 543.456 180.382 544.568 179.774 545.4C179.182 546.248 178.398 546.856 177.422 547.224C176.446 547.608 175.398 547.8 174.278 547.8C173.958 547.8 173.542 547.76 173.03 547.68C172.518 547.6 172.03 547.504 171.566 547.392C171.102 547.28 170.75 547.176 170.51 547.08C170.03 546.872 169.694 546.608 169.502 546.288C169.326 545.984 169.294 545.656 169.406 545.304C169.55 544.84 169.782 544.52 170.102 544.344C170.422 544.184 170.758 544.168 171.11 544.296C171.27 544.344 171.534 544.44 171.902 544.584C172.27 544.728 172.67 544.856 173.102 544.968C173.55 545.096 173.942 545.16 174.278 545.16C175.478 545.16 176.366 544.92 176.942 544.44C177.518 543.96 177.806 543.296 177.806 542.448V540.36L178.094 540.576C178.094 540.784 177.982 541.04 177.758 541.344C177.55 541.632 177.254 541.92 176.87 542.208C176.502 542.496 176.062 542.744 175.55 542.952C175.038 543.144 174.494 543.24 173.918 543.24C172.782 543.24 171.758 542.96 170.846 542.4C169.934 541.824 169.214 541.04 168.686 540.048C168.158 539.04 167.894 537.888 167.894 536.592C167.894 535.28 168.158 534.128 168.686 533.136C169.214 532.128 169.926 531.344 170.822 530.784C171.718 530.208 172.718 529.92 173.822 529.92ZM174.278 532.56C173.558 532.56 172.926 532.736 172.382 533.088C171.838 533.44 171.414 533.92 171.11 534.528C170.806 535.136 170.654 535.824 170.654 536.592C170.654 537.344 170.806 538.024 171.11 538.632C171.414 539.24 171.838 539.72 172.382 540.072C172.926 540.424 173.558 540.6 174.278 540.6C175.014 540.6 175.654 540.424 176.198 540.072C176.742 539.72 177.166 539.24 177.47 538.632C177.774 538.024 177.926 537.344 177.926 536.592C177.926 535.824 177.774 535.136 177.47 534.528C177.166 533.92 176.742 533.44 176.198 533.088C175.654 532.736 175.014 532.56 174.278 532.56ZM190.903 529.92C192.087 529.92 192.983 530.168 193.591 530.664C194.215 531.16 194.639 531.824 194.863 532.656C195.103 533.472 195.223 534.384 195.223 535.392V541.536C195.223 541.952 195.087 542.304 194.815 542.592C194.543 542.864 194.199 543 193.783 543C193.367 543 193.023 542.864 192.751 542.592C192.479 542.304 192.343 541.952 192.343 541.536V535.392C192.343 534.864 192.271 534.392 192.127 533.976C191.999 533.544 191.759 533.2 191.407 532.944C191.055 532.688 190.551 532.56 189.895 532.56C189.255 532.56 188.711 532.688 188.263 532.944C187.831 533.2 187.495 533.544 187.255 533.976C187.031 534.392 186.919 534.864 186.919 535.392V541.536C186.919 541.952 186.783 542.304 186.511 542.592C186.239 542.864 185.895 543 185.479 543C185.063 543 184.719 542.864 184.447 542.592C184.175 542.304 184.039 541.952 184.039 541.536V531.624C184.039 531.208 184.175 530.864 184.447 530.592C184.719 530.304 185.063 530.16 185.479 530.16C185.895 530.16 186.239 530.304 186.511 530.592C186.783 530.864 186.919 531.208 186.919 531.624V532.656L186.559 532.584C186.703 532.312 186.911 532.024 187.183 531.72C187.455 531.4 187.775 531.104 188.143 530.832C188.511 530.56 188.927 530.344 189.391 530.184C189.855 530.008 190.359 529.92 190.903 529.92Z" fill="#E2E2E2"/>
<circle cx="157" cy="435" r="50" fill="#8EEA77"/>
<path d="M157 447.25L169.25 435L174.5 440.25L162.25 452.5L157 447.25Z" stroke="#0B0F15" stroke-width="3" stroke-linecap="round" stroke-linejoin="round"/>
<path d="M167.5 436.75L164.875 423.625L139.5 417.5L145.625 442.875L158.75 445.5L167.5 436.75Z" stroke="#0B0F15" stroke-width="3" stroke-linecap="round" stroke-linejoin="round"/>
<path d="M139.5 417.5L152.776 430.776" stroke="#0B0F15" stroke-width="3" stroke-linecap="round" stroke-linejoin="round"/>
<path d="M155.25 436.75C157.183 436.75 158.75 435.183 158.75 433.25C158.75 431.317 157.183 429.75 155.25 429.75C153.317 429.75 151.75 431.317 151.75 433.25C151.75 435.183 153.317 436.75 155.25 436.75Z" stroke="#0B0F15" stroke-width="3" stroke-linecap="round" stroke-linejoin="round"/>
<rect x="26.5" y="333.5" width="261" height="268" rx="29.5" stroke="white" stroke-opacity="0.1"/>
<path d="M447.24 529.968L442.056 542.16C441.944 542.464 441.768 542.704 441.528 542.88C441.304 543.04 441.056 543.12 440.784 543.12C440.352 543.12 440.032 543 439.824 542.76C439.616 542.52 439.512 542.224 439.512 541.872C439.512 541.728 439.536 541.576 439.584 541.416L445.56 527.064C445.688 526.744 445.88 526.496 446.136 526.32C446.408 526.144 446.696 526.072 447 526.104C447.288 526.104 447.552 526.192 447.792 526.368C448.048 526.528 448.232 526.76 448.344 527.064L454.248 541.128C454.328 541.336 454.368 541.528 454.368 541.704C454.368 542.136 454.224 542.48 453.936 542.736C453.664 542.992 453.36 543.12 453.024 543.12C452.736 543.12 452.472 543.032 452.232 542.856C452.008 542.68 451.832 542.44 451.704 542.136L446.544 530.112L447.24 529.968ZM442.8 539.232L444.12 536.472H450.6L451.056 539.232H442.8ZM466.912 525.24C467.328 525.24 467.672 525.376 467.944 525.648C468.216 525.92 468.352 526.272 468.352 526.704V541.536C468.352 541.952 468.216 542.304 467.944 542.592C467.672 542.864 467.328 543 466.912 543C466.496 543 466.152 542.864 465.88 542.592C465.608 542.304 465.472 541.952 465.472 541.536V540.36L466 540.576C466 540.784 465.888 541.04 465.664 541.344C465.44 541.632 465.136 541.92 464.752 542.208C464.368 542.496 463.912 542.744 463.384 542.952C462.872 543.144 462.312 543.24 461.704 543.24C460.6 543.24 459.6 542.96 458.704 542.4C457.808 541.824 457.096 541.04 456.568 540.048C456.056 539.04 455.8 537.888 455.8 536.592C455.8 535.28 456.056 534.128 456.568 533.136C457.096 532.128 457.8 531.344 458.68 530.784C459.56 530.208 460.536 529.92 461.608 529.92C462.296 529.92 462.928 530.024 463.504 530.232C464.08 530.44 464.576 530.704 464.992 531.024C465.424 531.344 465.752 531.672 465.976 532.008C466.216 532.328 466.336 532.6 466.336 532.824L465.472 533.136V526.704C465.472 526.288 465.608 525.944 465.88 525.672C466.152 525.384 466.496 525.24 466.912 525.24ZM462.064 540.6C462.768 540.6 463.384 540.424 463.912 540.072C464.44 539.72 464.848 539.24 465.136 538.632C465.44 538.024 465.592 537.344 465.592 536.592C465.592 535.824 465.44 535.136 465.136 534.528C464.848 533.92 464.44 533.44 463.912 533.088C463.384 532.736 462.768 532.56 462.064 532.56C461.376 532.56 460.768 532.736 460.24 533.088C459.712 533.44 459.296 533.92 458.992 534.528C458.704 535.136 458.56 535.824 458.56 536.592C458.56 537.344 458.704 538.024 458.992 538.632C459.296 539.24 459.712 539.72 460.24 540.072C460.768 540.424 461.376 540.6 462.064 540.6ZM470.966 541.008C470.806 540.784 470.734 540.496 470.75 540.144C470.766 539.792 470.974 539.488 471.374 539.232C471.63 539.072 471.902 539.008 472.19 539.04C472.478 539.056 472.758 539.2 473.03 539.472C473.494 539.936 473.982 540.296 474.494 540.552C475.006 540.808 475.646 540.936 476.414 540.936C476.654 540.92 476.918 540.888 477.206 540.84C477.494 540.776 477.742 540.648 477.95 540.456C478.174 540.248 478.286 539.936 478.286 539.52C478.286 539.168 478.166 538.888 477.926 538.68C477.686 538.472 477.366 538.296 476.966 538.152C476.582 538.008 476.15 537.872 475.67 537.744C475.174 537.6 474.662 537.44 474.134 537.264C473.622 537.088 473.15 536.864 472.718 536.592C472.286 536.304 471.934 535.928 471.662 535.464C471.39 535 471.254 534.416 471.254 533.712C471.254 532.912 471.478 532.232 471.926 531.672C472.374 531.112 472.95 530.68 473.654 530.376C474.374 530.072 475.126 529.92 475.91 529.92C476.406 529.92 476.926 529.984 477.47 530.112C478.014 530.224 478.534 530.416 479.03 530.688C479.526 530.944 479.942 531.288 480.278 531.72C480.454 531.96 480.558 532.248 480.59 532.584C480.622 532.92 480.47 533.224 480.134 533.496C479.894 533.688 479.614 533.776 479.294 533.76C478.974 533.728 478.71 533.616 478.502 533.424C478.23 533.072 477.862 532.792 477.398 532.584C476.95 532.376 476.43 532.272 475.838 532.272C475.598 532.272 475.334 532.304 475.046 532.368C474.774 532.416 474.534 532.536 474.326 532.728C474.118 532.904 474.014 533.192 474.014 533.592C474.014 533.96 474.134 534.256 474.374 534.48C474.614 534.688 474.934 534.864 475.334 535.008C475.75 535.136 476.19 535.264 476.654 535.392C477.134 535.52 477.622 535.672 478.118 535.848C478.614 536.024 479.07 536.256 479.486 536.544C479.902 536.832 480.238 537.208 480.494 537.672C480.75 538.12 480.878 538.696 480.878 539.4C480.878 540.216 480.638 540.912 480.158 541.488C479.678 542.064 479.078 542.504 478.358 542.808C477.638 543.096 476.902 543.24 476.15 543.24C475.206 543.24 474.262 543.08 473.318 542.76C472.374 542.424 471.59 541.84 470.966 541.008Z" fill="#E2E2E2"/>
<circle cx="460" cy="435" r="50" fill="#FFB31A"/>
<path d="M474 426.25H446C444.067 426.25 442.5 427.817 442.5 429.75V449C442.5 450.933 444.067 452.5 446 452.5H474C475.933 452.5 477.5 450.933 477.5 449V429.75C477.5 427.817 475.933 426.25 474 426.25Z" stroke="#0B0F15" stroke-width="3" stroke-linecap="round" stroke-linejoin="round"/>
<path d="M468.75 417.5L460 426.25L451.25 417.5" stroke="#0B0F15" stroke-width="3" stroke-linecap="round" stroke-linejoin="round"/>
<rect x="329.5" y="333.5" width="261" height="268" rx="29.5" stroke="white" stroke-opacity="0.1"/>
<g filter="url(#filter0_d_1_1086)">
<rect x="26" y="26" width="262" height="269" rx="30" fill="#0B0F15"/>
<rect x="26.5" y="26.5" width="261" height="268" rx="29.5" stroke="white" stroke-opacity="0.1"/>
</g>
<path d="M90.212 219.24C89.092 219.24 88.084 219.104 87.188 218.832C86.292 218.544 85.436 218.048 84.62 217.344C84.412 217.168 84.252 216.968 84.14 216.744C84.028 216.52 83.972 216.296 83.972 216.072C83.972 215.704 84.1 215.384 84.356 215.112C84.628 214.824 84.964 214.68 85.364 214.68C85.668 214.68 85.94 214.776 86.18 214.968C86.788 215.464 87.388 215.84 87.98 216.096C88.588 216.352 89.332 216.48 90.212 216.48C90.804 216.48 91.348 216.392 91.844 216.216C92.34 216.024 92.74 215.776 93.044 215.472C93.348 215.152 93.5 214.792 93.5 214.392C93.5 213.912 93.356 213.504 93.068 213.168C92.78 212.832 92.34 212.552 91.748 212.328C91.156 212.088 90.404 211.904 89.492 211.776C88.628 211.648 87.868 211.456 87.212 211.2C86.556 210.928 86.004 210.592 85.556 210.192C85.124 209.776 84.796 209.296 84.572 208.752C84.348 208.192 84.236 207.568 84.236 206.88C84.236 205.84 84.5 204.952 85.028 204.216C85.572 203.48 86.3 202.92 87.212 202.536C88.124 202.152 89.132 201.96 90.236 201.96C91.276 201.96 92.236 202.12 93.116 202.44C94.012 202.744 94.74 203.136 95.3 203.616C95.764 203.984 95.996 204.408 95.996 204.888C95.996 205.24 95.86 205.56 95.588 205.848C95.316 206.136 94.996 206.28 94.628 206.28C94.388 206.28 94.172 206.208 93.98 206.064C93.724 205.84 93.38 205.632 92.948 205.44C92.516 205.232 92.06 205.064 91.58 204.936C91.1 204.792 90.652 204.72 90.236 204.72C89.548 204.72 88.964 204.808 88.484 204.984C88.02 205.16 87.668 205.4 87.428 205.704C87.188 206.008 87.068 206.36 87.068 206.76C87.068 207.24 87.204 207.64 87.476 207.96C87.764 208.264 88.172 208.512 88.7 208.704C89.228 208.88 89.86 209.04 90.596 209.184C91.556 209.36 92.396 209.568 93.116 209.808C93.852 210.048 94.46 210.36 94.94 210.744C95.42 211.112 95.78 211.584 96.02 212.16C96.26 212.72 96.38 213.408 96.38 214.224C96.38 215.264 96.092 216.16 95.516 216.912C94.94 217.664 94.18 218.24 93.236 218.64C92.308 219.04 91.3 219.24 90.212 219.24ZM111.588 212.592C111.588 213.904 111.292 215.064 110.7 216.072C110.124 217.064 109.34 217.84 108.348 218.4C107.372 218.96 106.276 219.24 105.06 219.24C103.844 219.24 102.74 218.96 101.748 218.4C100.772 217.84 99.9883 217.064 99.3963 216.072C98.8203 215.064 98.5323 213.904 98.5323 212.592C98.5323 211.28 98.8203 210.128 99.3963 209.136C99.9883 208.128 100.772 207.344 101.748 206.784C102.74 206.208 103.844 205.92 105.06 205.92C106.276 205.92 107.372 206.208 108.348 206.784C109.34 207.344 110.124 208.128 110.7 209.136C111.292 210.128 111.588 211.28 111.588 212.592ZM108.708 212.592C108.708 211.776 108.54 211.072 108.204 210.48C107.884 209.872 107.444 209.4 106.884 209.064C106.34 208.728 105.732 208.56 105.06 208.56C104.388 208.56 103.772 208.728 103.212 209.064C102.668 209.4 102.228 209.872 101.892 210.48C101.572 211.072 101.412 211.776 101.412 212.592C101.412 213.392 101.572 214.096 101.892 214.704C102.228 215.296 102.668 215.76 103.212 216.096C103.772 216.432 104.388 216.6 105.06 216.6C105.732 216.6 106.34 216.432 106.884 216.096C107.444 215.76 107.884 215.296 108.204 214.704C108.54 214.096 108.708 213.392 108.708 212.592ZM120.061 205.92C120.973 205.92 121.765 206.016 122.437 206.208C123.125 206.4 123.653 206.672 124.021 207.024C124.405 207.36 124.597 207.768 124.597 208.248C124.597 208.568 124.501 208.872 124.309 209.16C124.117 209.432 123.837 209.568 123.469 209.568C123.213 209.568 122.997 209.536 122.821 209.472C122.661 209.392 122.517 209.296 122.389 209.184C122.261 209.072 122.109 208.968 121.933 208.872C121.773 208.776 121.525 208.704 121.189 208.656C120.869 208.592 120.629 208.56 120.469 208.56C119.653 208.56 118.957 208.736 118.381 209.088C117.821 209.44 117.389 209.92 117.085 210.528C116.781 211.12 116.629 211.808 116.629 212.592C116.629 213.36 116.781 214.048 117.085 214.656C117.405 215.248 117.837 215.72 118.381 216.072C118.941 216.424 119.581 216.6 120.301 216.6C120.701 216.6 121.045 216.576 121.333 216.528C121.621 216.48 121.861 216.408 122.053 216.312C122.277 216.184 122.477 216.048 122.653 215.904C122.829 215.76 123.093 215.688 123.445 215.688C123.861 215.688 124.181 215.824 124.405 216.096C124.629 216.352 124.741 216.672 124.741 217.056C124.741 217.456 124.517 217.824 124.069 218.16C123.621 218.48 123.029 218.744 122.293 218.952C121.573 219.144 120.789 219.24 119.941 219.24C118.677 219.24 117.581 218.952 116.653 218.376C115.725 217.784 115.005 216.984 114.493 215.976C113.997 214.968 113.749 213.84 113.749 212.592C113.749 211.28 114.013 210.128 114.541 209.136C115.085 208.128 115.829 207.344 116.773 206.784C117.733 206.208 118.829 205.92 120.061 205.92ZM129.77 217.536C129.77 217.952 129.634 218.304 129.362 218.592C129.09 218.864 128.746 219 128.33 219C127.914 219 127.57 218.864 127.298 218.592C127.026 218.304 126.89 217.952 126.89 217.536V207.624C126.89 207.208 127.026 206.864 127.298 206.592C127.57 206.304 127.914 206.16 128.33 206.16C128.746 206.16 129.09 206.304 129.362 206.592C129.634 206.864 129.77 207.208 129.77 207.624V217.536ZM128.306 204.6C127.762 204.6 127.378 204.512 127.154 204.336C126.93 204.16 126.818 203.848 126.818 203.4V202.944C126.818 202.48 126.938 202.168 127.178 202.008C127.434 201.832 127.818 201.744 128.33 201.744C128.89 201.744 129.282 201.832 129.506 202.008C129.73 202.184 129.842 202.496 129.842 202.944V203.4C129.842 203.864 129.722 204.184 129.482 204.36C129.242 204.52 128.85 204.6 128.306 204.6ZM143.482 205.92C143.898 205.92 144.242 206.056 144.514 206.328C144.786 206.6 144.922 206.952 144.922 207.384V217.536C144.922 217.952 144.786 218.304 144.514 218.592C144.242 218.864 143.898 219 143.482 219C143.066 219 142.722 218.864 142.45 218.592C142.178 218.304 142.042 217.952 142.042 217.536V216.36L142.57 216.576C142.57 216.784 142.458 217.04 142.234 217.344C142.01 217.632 141.706 217.92 141.322 218.208C140.938 218.496 140.482 218.744 139.954 218.952C139.442 219.144 138.882 219.24 138.274 219.24C137.17 219.24 136.17 218.96 135.274 218.4C134.378 217.824 133.666 217.04 133.138 216.048C132.626 215.04 132.37 213.888 132.37 212.592C132.37 211.28 132.626 210.128 133.138 209.136C133.666 208.128 134.37 207.344 135.25 206.784C136.13 206.208 137.106 205.92 138.178 205.92C138.866 205.92 139.498 206.024 140.074 206.232C140.65 206.44 141.146 206.704 141.562 207.024C141.994 207.344 142.322 207.672 142.546 208.008C142.786 208.328 142.906 208.6 142.906 208.824L142.042 209.136V207.384C142.042 206.968 142.178 206.624 142.45 206.352C142.722 206.064 143.066 205.92 143.482 205.92ZM138.634 216.6C139.338 216.6 139.954 216.424 140.482 216.072C141.01 215.72 141.418 215.24 141.706 214.632C142.01 214.024 142.162 213.344 142.162 212.592C142.162 211.824 142.01 211.136 141.706 210.528C141.418 209.92 141.01 209.44 140.482 209.088C139.954 208.736 139.338 208.56 138.634 208.56C137.946 208.56 137.338 208.736 136.81 209.088C136.282 209.44 135.866 209.92 135.562 210.528C135.274 211.136 135.13 211.824 135.13 212.592C135.13 213.344 135.274 214.024 135.562 214.632C135.866 215.24 136.282 215.72 136.81 216.072C137.338 216.424 137.946 216.6 138.634 216.6ZM151.4 217.536C151.4 217.952 151.256 218.304 150.968 218.592C150.696 218.864 150.352 219 149.936 219C149.536 219 149.2 218.864 148.928 218.592C148.656 218.304 148.52 217.952 148.52 217.536V202.704C148.52 202.288 148.656 201.944 148.928 201.672C149.216 201.384 149.568 201.24 149.984 201.24C150.4 201.24 150.736 201.384 150.992 201.672C151.264 201.944 151.4 202.288 151.4 202.704V217.536ZM163.707 202.176C163.931 202.176 164.163 202.24 164.403 202.368C164.659 202.48 164.851 202.632 164.979 202.824L170.811 211.8L169.611 211.752L175.587 202.824C175.891 202.392 176.283 202.176 176.763 202.176C177.147 202.176 177.491 202.312 177.795 202.584C178.099 202.856 178.251 203.208 178.251 203.64V217.536C178.251 217.952 178.115 218.304 177.843 218.592C177.571 218.864 177.211 219 176.763 219C176.315 219 175.947 218.864 175.659 218.592C175.387 218.304 175.251 217.952 175.251 217.536V206.232L176.187 206.448L171.291 213.912C171.147 214.088 170.963 214.24 170.739 214.368C170.531 214.496 170.315 214.552 170.091 214.536C169.883 214.552 169.667 214.496 169.443 214.368C169.235 214.24 169.059 214.088 168.915 213.912L164.331 206.664L164.955 205.392V217.536C164.955 217.952 164.827 218.304 164.571 218.592C164.315 218.864 163.979 219 163.563 219C163.163 219 162.835 218.864 162.579 218.592C162.323 218.304 162.195 217.952 162.195 217.536V203.64C162.195 203.24 162.339 202.896 162.627 202.608C162.931 202.32 163.291 202.176 163.707 202.176ZM187.907 219.24C186.547 219.24 185.363 218.96 184.355 218.4C183.363 217.824 182.595 217.048 182.051 216.072C181.523 215.096 181.259 213.992 181.259 212.76C181.259 211.32 181.547 210.096 182.123 209.088C182.715 208.064 183.483 207.28 184.427 206.736C185.371 206.192 186.371 205.92 187.427 205.92C188.243 205.92 189.011 206.088 189.731 206.424C190.467 206.76 191.115 207.224 191.675 207.816C192.235 208.392 192.675 209.064 192.995 209.832C193.331 210.6 193.499 211.416 193.499 212.28C193.483 212.664 193.331 212.976 193.043 213.216C192.755 213.456 192.419 213.576 192.035 213.576H182.867L182.147 211.176H190.955L190.427 211.656V211.008C190.395 210.544 190.227 210.128 189.923 209.76C189.635 209.392 189.267 209.104 188.819 208.896C188.387 208.672 187.923 208.56 187.427 208.56C186.947 208.56 186.499 208.624 186.083 208.752C185.667 208.88 185.307 209.096 185.003 209.4C184.699 209.704 184.459 210.112 184.283 210.624C184.107 211.136 184.019 211.784 184.019 212.568C184.019 213.432 184.195 214.168 184.547 214.776C184.915 215.368 185.379 215.824 185.939 216.144C186.515 216.448 187.123 216.6 187.763 216.6C188.355 216.6 188.827 216.552 189.179 216.456C189.531 216.36 189.811 216.248 190.019 216.12C190.243 215.976 190.443 215.856 190.619 215.76C190.907 215.616 191.179 215.544 191.435 215.544C191.787 215.544 192.075 215.664 192.299 215.904C192.539 216.144 192.659 216.424 192.659 216.744C192.659 217.176 192.435 217.568 191.987 217.92C191.571 218.272 190.987 218.584 190.235 218.856C189.483 219.112 188.707 219.24 187.907 219.24ZM206.767 201.24C207.183 201.24 207.527 201.376 207.799 201.648C208.071 201.92 208.207 202.272 208.207 202.704V217.536C208.207 217.952 208.071 218.304 207.799 218.592C207.527 218.864 207.183 219 206.767 219C206.351 219 206.007 218.864 205.735 218.592C205.463 218.304 205.327 217.952 205.327 217.536V216.36L205.855 216.576C205.855 216.784 205.743 217.04 205.519 217.344C205.295 217.632 204.991 217.92 204.607 218.208C204.223 218.496 203.767 218.744 203.239 218.952C202.727 219.144 202.167 219.24 201.559 219.24C200.455 219.24 199.455 218.96 198.559 218.4C197.663 217.824 196.951 217.04 196.423 216.048C195.911 215.04 195.655 213.888 195.655 212.592C195.655 211.28 195.911 210.128 196.423 209.136C196.951 208.128 197.655 207.344 198.535 206.784C199.415 206.208 200.391 205.92 201.463 205.92C202.151 205.92 202.783 206.024 203.359 206.232C203.935 206.44 204.431 206.704 204.847 207.024C205.279 207.344 205.607 207.672 205.831 208.008C206.071 208.328 206.191 208.6 206.191 208.824L205.327 209.136V202.704C205.327 202.288 205.463 201.944 205.735 201.672C206.007 201.384 206.351 201.24 206.767 201.24ZM201.919 216.6C202.623 216.6 203.239 216.424 203.767 216.072C204.295 215.72 204.703 215.24 204.991 214.632C205.295 214.024 205.447 213.344 205.447 212.592C205.447 211.824 205.295 211.136 204.991 210.528C204.703 209.92 204.295 209.44 203.767 209.088C203.239 208.736 202.623 208.56 201.919 208.56C201.231 208.56 200.623 208.736 200.095 209.088C199.567 209.44 199.151 209.92 198.847 210.528C198.559 211.136 198.415 211.824 198.415 212.592C198.415 213.344 198.559 214.024 198.847 214.632C199.151 215.24 199.567 215.72 200.095 216.072C200.623 216.424 201.231 216.6 201.919 216.6ZM214.278 217.536C214.278 217.952 214.142 218.304 213.87 218.592C213.598 218.864 213.254 219 212.838 219C212.422 219 212.078 218.864 211.806 218.592C211.534 218.304 211.398 217.952 211.398 217.536V207.624C211.398 207.208 211.534 206.864 211.806 206.592C212.078 206.304 212.422 206.16 212.838 206.16C213.254 206.16 213.598 206.304 213.87 206.592C214.142 206.864 214.278 207.208 214.278 207.624V217.536ZM212.814 204.6C212.27 204.6 211.886 204.512 211.662 204.336C211.438 204.16 211.326 203.848 211.326 203.4V202.944C211.326 202.48 211.446 202.168 211.686 202.008C211.942 201.832 212.326 201.744 212.838 201.744C213.398 201.744 213.79 201.832 214.014 202.008C214.238 202.184 214.35 202.496 214.35 202.944V203.4C214.35 203.864 214.23 204.184 213.99 204.36C213.75 204.52 213.358 204.6 212.814 204.6ZM227.99 205.92C228.406 205.92 228.75 206.056 229.022 206.328C229.294 206.6 229.43 206.952 229.43 207.384V217.536C229.43 217.952 229.294 218.304 229.022 218.592C228.75 218.864 228.406 219 227.99 219C227.574 219 227.23 218.864 226.958 218.592C226.686 218.304 226.55 217.952 226.55 217.536V216.36L227.078 216.576C227.078 216.784 226.966 217.04 226.742 217.344C226.518 217.632 226.214 217.92 225.83 218.208C225.446 218.496 224.99 218.744 224.462 218.952C223.95 219.144 223.39 219.24 222.782 219.24C221.678 219.24 220.678 218.96 219.782 218.4C218.886 217.824 218.174 217.04 217.646 216.048C217.134 215.04 216.878 213.888 216.878 212.592C216.878 211.28 217.134 210.128 217.646 209.136C218.174 208.128 218.878 207.344 219.758 206.784C220.638 206.208 221.614 205.92 222.686 205.92C223.374 205.92 224.006 206.024 224.582 206.232C225.158 206.44 225.654 206.704 226.07 207.024C226.502 207.344 226.83 207.672 227.054 208.008C227.294 208.328 227.414 208.6 227.414 208.824L226.55 209.136V207.384C226.55 206.968 226.686 206.624 226.958 206.352C227.23 206.064 227.574 205.92 227.99 205.92ZM223.142 216.6C223.846 216.6 224.462 216.424 224.99 216.072C225.518 215.72 225.926 215.24 226.214 214.632C226.518 214.024 226.67 213.344 226.67 212.592C226.67 211.824 226.518 211.136 226.214 210.528C225.926 209.92 225.518 209.44 224.99 209.088C224.462 208.736 223.846 208.56 223.142 208.56C222.454 208.56 221.846 208.736 221.318 209.088C220.79 209.44 220.374 209.92 220.07 210.528C219.782 211.136 219.638 211.824 219.638 212.592C219.638 213.344 219.782 214.024 220.07 214.632C220.374 215.24 220.79 215.72 221.318 216.072C221.846 216.424 222.454 216.6 223.142 216.6ZM82.4859 236.176C82.7099 236.176 82.9419 236.24 83.1819 236.368C83.4379 236.48 83.6299 236.632 83.7579 236.824L89.5899 245.8L88.3899 245.752L94.3659 236.824C94.6699 236.392 95.0619 236.176 95.5419 236.176C95.9259 236.176 96.2699 236.312 96.5739 236.584C96.8779 236.856 97.0299 237.208 97.0299 237.64V251.536C97.0299 251.952 96.8939 252.304 96.6219 252.592C96.3499 252.864 95.9899 253 95.5419 253C95.0939 253 94.7259 252.864 94.4379 252.592C94.1659 252.304 94.0299 251.952 94.0299 251.536V240.232L94.9659 240.448L90.0699 247.912C89.9259 248.088 89.7419 248.24 89.5179 248.368C89.3099 248.496 89.0939 248.552 88.8699 248.536C88.6619 248.552 88.4459 248.496 88.2219 248.368C88.0139 248.24 87.8379 248.088 87.6939 247.912L83.1099 240.664L83.7339 239.392V251.536C83.7339 251.952 83.6059 252.304 83.3499 252.592C83.0939 252.864 82.7579 253 82.3419 253C81.9419 253 81.6139 252.864 81.3579 252.592C81.1019 252.304 80.9739 251.952 80.9739 251.536V237.64C80.9739 237.24 81.1179 236.896 81.4059 236.608C81.7099 236.32 82.0699 236.176 82.4859 236.176ZM111.15 239.92C111.566 239.92 111.91 240.056 112.182 240.328C112.454 240.6 112.59 240.952 112.59 241.384V251.536C112.59 251.952 112.454 252.304 112.182 252.592C111.91 252.864 111.566 253 111.15 253C110.734 253 110.39 252.864 110.118 252.592C109.846 252.304 109.71 251.952 109.71 251.536V250.36L110.238 250.576C110.238 250.784 110.126 251.04 109.902 251.344C109.678 251.632 109.374 251.92 108.99 252.208C108.606 252.496 108.15 252.744 107.622 252.952C107.11 253.144 106.55 253.24 105.942 253.24C104.838 253.24 103.838 252.96 102.942 252.4C102.046 251.824 101.334 251.04 100.806 250.048C100.294 249.04 100.038 247.888 100.038 246.592C100.038 245.28 100.294 244.128 100.806 243.136C101.334 242.128 102.038 241.344 102.918 240.784C103.798 240.208 104.774 239.92 105.846 239.92C106.534 239.92 107.166 240.024 107.742 240.232C108.318 240.44 108.814 240.704 109.23 241.024C109.662 241.344 109.99 241.672 110.214 242.008C110.454 242.328 110.574 242.6 110.574 242.824L109.71 243.136V241.384C109.71 240.968 109.846 240.624 110.118 240.352C110.39 240.064 110.734 239.92 111.15 239.92ZM106.302 250.6C107.006 250.6 107.622 250.424 108.15 250.072C108.678 249.72 109.086 249.24 109.374 248.632C109.678 248.024 109.83 247.344 109.83 246.592C109.83 245.824 109.678 245.136 109.374 244.528C109.086 243.92 108.678 243.44 108.15 243.088C107.622 242.736 107.006 242.56 106.302 242.56C105.614 242.56 105.006 242.736 104.478 243.088C103.95 243.44 103.534 243.92 103.23 244.528C102.942 245.136 102.798 245.824 102.798 246.592C102.798 247.344 102.942 248.024 103.23 248.632C103.534 249.24 103.95 249.72 104.478 250.072C105.006 250.424 105.614 250.6 106.302 250.6ZM122.812 239.92C123.996 239.92 124.892 240.168 125.5 240.664C126.124 241.16 126.548 241.824 126.772 242.656C127.012 243.472 127.132 244.384 127.132 245.392V251.536C127.132 251.952 126.996 252.304 126.724 252.592C126.452 252.864 126.108 253 125.692 253C125.276 253 124.932 252.864 124.66 252.592C124.388 252.304 124.252 251.952 124.252 251.536V245.392C124.252 244.864 124.18 244.392 124.036 243.976C123.908 243.544 123.668 243.2 123.316 242.944C122.964 242.688 122.46 242.56 121.804 242.56C121.164 242.56 120.62 242.688 120.172 242.944C119.74 243.2 119.404 243.544 119.164 243.976C118.94 244.392 118.828 244.864 118.828 245.392V251.536C118.828 251.952 118.692 252.304 118.42 252.592C118.148 252.864 117.804 253 117.388 253C116.972 253 116.628 252.864 116.356 252.592C116.084 252.304 115.948 251.952 115.948 251.536V241.624C115.948 241.208 116.084 240.864 116.356 240.592C116.628 240.304 116.972 240.16 117.388 240.16C117.804 240.16 118.148 240.304 118.42 240.592C118.692 240.864 118.828 241.208 118.828 241.624V242.656L118.468 242.584C118.612 242.312 118.82 242.024 119.092 241.72C119.364 241.4 119.684 241.104 120.052 240.832C120.42 240.56 120.836 240.344 121.3 240.184C121.764 240.008 122.268 239.92 122.812 239.92ZM140.997 239.92C141.413 239.92 141.757 240.056 142.029 240.328C142.301 240.6 142.437 240.952 142.437 241.384V251.536C142.437 251.952 142.301 252.304 142.029 252.592C141.757 252.864 141.413 253 140.997 253C140.581 253 140.237 252.864 139.965 252.592C139.693 252.304 139.557 251.952 139.557 251.536V250.36L140.085 250.576C140.085 250.784 139.973 251.04 139.749 251.344C139.525 251.632 139.221 251.92 138.837 252.208C138.453 252.496 137.997 252.744 137.469 252.952C136.957 253.144 136.397 253.24 135.789 253.24C134.685 253.24 133.685 252.96 132.789 252.4C131.893 251.824 131.181 251.04 130.653 250.048C130.141 249.04 129.885 247.888 129.885 246.592C129.885 245.28 130.141 244.128 130.653 243.136C131.181 242.128 131.885 241.344 132.765 240.784C133.645 240.208 134.621 239.92 135.693 239.92C136.381 239.92 137.013 240.024 137.589 240.232C138.165 240.44 138.661 240.704 139.077 241.024C139.509 241.344 139.837 241.672 140.061 242.008C140.301 242.328 140.421 242.6 140.421 242.824L139.557 243.136V241.384C139.557 240.968 139.693 240.624 139.965 240.352C140.237 240.064 140.581 239.92 140.997 239.92ZM136.149 250.6C136.853 250.6 137.469 250.424 137.997 250.072C138.525 249.72 138.933 249.24 139.221 248.632C139.525 248.024 139.677 247.344 139.677 246.592C139.677 245.824 139.525 245.136 139.221 244.528C138.933 243.92 138.525 243.44 137.997 243.088C137.469 242.736 136.853 242.56 136.149 242.56C135.461 242.56 134.853 242.736 134.325 243.088C133.797 243.44 133.381 243.92 133.077 244.528C132.789 245.136 132.645 245.824 132.645 246.592C132.645 247.344 132.789 248.024 133.077 248.632C133.381 249.24 133.797 249.72 134.325 250.072C134.853 250.424 135.461 250.6 136.149 250.6ZM151.123 239.92C151.795 239.92 152.411 240.024 152.971 240.232C153.531 240.44 154.011 240.704 154.411 241.024C154.827 241.344 155.147 241.672 155.371 242.008C155.611 242.328 155.731 242.6 155.731 242.824L155.107 243.136V241.384C155.107 240.968 155.243 240.624 155.515 240.352C155.787 240.064 156.131 239.92 156.547 239.92C156.963 239.92 157.307 240.056 157.579 240.328C157.851 240.6 157.987 240.952 157.987 241.384V252.064C157.987 253.456 157.683 254.568 157.075 255.4C156.483 256.248 155.699 256.856 154.723 257.224C153.747 257.608 152.699 257.8 151.579 257.8C151.259 257.8 150.843 257.76 150.331 257.68C149.819 257.6 149.331 257.504 148.867 257.392C148.403 257.28 148.051 257.176 147.811 257.08C147.331 256.872 146.995 256.608 146.803 256.288C146.627 255.984 146.595 255.656 146.707 255.304C146.851 254.84 147.083 254.52 147.403 254.344C147.723 254.184 148.059 254.168 148.411 254.296C148.571 254.344 148.835 254.44 149.203 254.584C149.571 254.728 149.971 254.856 150.403 254.968C150.851 255.096 151.243 255.16 151.579 255.16C152.779 255.16 153.667 254.92 154.243 254.44C154.819 253.96 155.107 253.296 155.107 252.448V250.36L155.395 250.576C155.395 250.784 155.283 251.04 155.059 251.344C154.851 251.632 154.555 251.92 154.171 252.208C153.803 252.496 153.363 252.744 152.851 252.952C152.339 253.144 151.795 253.24 151.219 253.24C150.083 253.24 149.059 252.96 148.147 252.4C147.235 251.824 146.515 251.04 145.987 250.048C145.459 249.04 145.195 247.888 145.195 246.592C145.195 245.28 145.459 244.128 145.987 243.136C146.515 242.128 147.227 241.344 148.123 240.784C149.019 240.208 150.019 239.92 151.123 239.92ZM151.579 242.56C150.859 242.56 150.227 242.736 149.683 243.088C149.139 243.44 148.715 243.92 148.411 244.528C148.107 245.136 147.955 245.824 147.955 246.592C147.955 247.344 148.107 248.024 148.411 248.632C148.715 249.24 149.139 249.72 149.683 250.072C150.227 250.424 150.859 250.6 151.579 250.6C152.315 250.6 152.955 250.424 153.499 250.072C154.043 249.72 154.467 249.24 154.771 248.632C155.075 248.024 155.227 247.344 155.227 246.592C155.227 245.824 155.075 245.136 154.771 244.528C154.467 243.92 154.043 243.44 153.499 243.088C152.955 242.736 152.315 242.56 151.579 242.56ZM166.919 253.24C165.559 253.24 164.375 252.96 163.367 252.4C162.375 251.824 161.607 251.048 161.063 250.072C160.535 249.096 160.271 247.992 160.271 246.76C160.271 245.32 160.559 244.096 161.135 243.088C161.727 242.064 162.495 241.28 163.439 240.736C164.383 240.192 165.383 239.92 166.439 239.92C167.255 239.92 168.023 240.088 168.743 240.424C169.479 240.76 170.127 241.224 170.687 241.816C171.247 242.392 171.687 243.064 172.007 243.832C172.343 244.6 172.511 245.416 172.511 246.28C172.495 246.664 172.343 246.976 172.055 247.216C171.767 247.456 171.431 247.576 171.047 247.576H161.879L161.159 245.176H169.967L169.439 245.656V245.008C169.407 244.544 169.239 244.128 168.935 243.76C168.647 243.392 168.279 243.104 167.831 242.896C167.399 242.672 166.935 242.56 166.439 242.56C165.959 242.56 165.511 242.624 165.095 242.752C164.679 242.88 164.319 243.096 164.015 243.4C163.711 243.704 163.471 244.112 163.295 244.624C163.119 245.136 163.031 245.784 163.031 246.568C163.031 247.432 163.207 248.168 163.559 248.776C163.927 249.368 164.391 249.824 164.951 250.144C165.527 250.448 166.135 250.6 166.775 250.6C167.367 250.6 167.839 250.552 168.191 250.456C168.543 250.36 168.823 250.248 169.031 250.12C169.255 249.976 169.455 249.856 169.631 249.76C169.919 249.616 170.191 249.544 170.447 249.544C170.799 249.544 171.087 249.664 171.311 249.904C171.551 250.144 171.671 250.424 171.671 250.744C171.671 251.176 171.447 251.568 170.999 251.92C170.583 252.272 169.999 252.584 169.247 252.856C168.495 253.112 167.719 253.24 166.919 253.24ZM182.012 239.92C183.292 239.92 184.236 240.232 184.844 240.856C185.452 241.464 185.852 242.256 186.044 243.232L185.636 243.016L185.828 242.632C186.02 242.264 186.316 241.872 186.716 241.456C187.116 241.024 187.596 240.664 188.156 240.376C188.732 240.072 189.372 239.92 190.076 239.92C191.228 239.92 192.1 240.168 192.692 240.664C193.3 241.16 193.716 241.824 193.94 242.656C194.164 243.472 194.276 244.384 194.276 245.392V251.536C194.276 251.952 194.14 252.304 193.868 252.592C193.596 252.864 193.252 253 192.836 253C192.42 253 192.076 252.864 191.804 252.592C191.532 252.304 191.396 251.952 191.396 251.536V245.392C191.396 244.864 191.332 244.392 191.204 243.976C191.076 243.544 190.844 243.2 190.508 242.944C190.172 242.688 189.692 242.56 189.068 242.56C188.46 242.56 187.94 242.688 187.508 242.944C187.076 243.2 186.748 243.544 186.524 243.976C186.316 244.392 186.212 244.864 186.212 245.392V251.536C186.212 251.952 186.076 252.304 185.804 252.592C185.532 252.864 185.188 253 184.772 253C184.356 253 184.012 252.864 183.74 252.592C183.468 252.304 183.332 251.952 183.332 251.536V245.392C183.332 244.864 183.268 244.392 183.14 243.976C183.012 243.544 182.78 243.2 182.444 242.944C182.108 242.688 181.628 242.56 181.004 242.56C180.396 242.56 179.876 242.688 179.444 242.944C179.012 243.2 178.684 243.544 178.46 243.976C178.252 244.392 178.148 244.864 178.148 245.392V251.536C178.148 251.952 178.012 252.304 177.74 252.592C177.468 252.864 177.124 253 176.708 253C176.292 253 175.948 252.864 175.676 252.592C175.404 252.304 175.268 251.952 175.268 251.536V241.624C175.268 241.208 175.404 240.864 175.676 240.592C175.948 240.304 176.292 240.16 176.708 240.16C177.124 240.16 177.468 240.304 177.74 240.592C178.012 240.864 178.148 241.208 178.148 241.624V242.656L177.788 242.584C177.932 242.312 178.132 242.024 178.388 241.72C178.644 241.4 178.956 241.104 179.324 240.832C179.692 240.56 180.1 240.344 180.548 240.184C180.996 240.008 181.484 239.92 182.012 239.92ZM203.681 253.24C202.321 253.24 201.137 252.96 200.129 252.4C199.137 251.824 198.369 251.048 197.825 250.072C197.297 249.096 197.033 247.992 197.033 246.76C197.033 245.32 197.321 244.096 197.897 243.088C198.489 242.064 199.257 241.28 200.201 240.736C201.145 240.192 202.145 239.92 203.201 239.92C204.017 239.92 204.785 240.088 205.505 240.424C206.241 240.76 206.889 241.224 207.449 241.816C208.009 242.392 208.449 243.064 208.769 243.832C209.105 244.6 209.273 245.416 209.273 246.28C209.257 246.664 209.105 246.976 208.817 247.216C208.529 247.456 208.193 247.576 207.809 247.576H198.641L197.921 245.176H206.729L206.201 245.656V245.008C206.169 244.544 206.001 244.128 205.697 243.76C205.409 243.392 205.041 243.104 204.593 242.896C204.161 242.672 203.697 242.56 203.201 242.56C202.721 242.56 202.273 242.624 201.857 242.752C201.441 242.88 201.081 243.096 200.777 243.4C200.473 243.704 200.233 244.112 200.057 244.624C199.881 245.136 199.793 245.784 199.793 246.568C199.793 247.432 199.969 248.168 200.321 248.776C200.689 249.368 201.153 249.824 201.713 250.144C202.289 250.448 202.897 250.6 203.537 250.6C204.129 250.6 204.601 250.552 204.953 250.456C205.305 250.36 205.585 250.248 205.793 250.12C206.017 249.976 206.217 249.856 206.393 249.76C206.681 249.616 206.953 249.544 207.209 249.544C207.561 249.544 207.849 249.664 208.073 249.904C208.313 250.144 208.433 250.424 208.433 250.744C208.433 251.176 208.209 251.568 207.761 251.92C207.345 252.272 206.761 252.584 206.009 252.856C205.257 253.112 204.481 253.24 203.681 253.24ZM218.893 239.92C220.077 239.92 220.973 240.168 221.581 240.664C222.205 241.16 222.629 241.824 222.853 242.656C223.093 243.472 223.213 244.384 223.213 245.392V251.536C223.213 251.952 223.077 252.304 222.805 252.592C222.533 252.864 222.189 253 221.773 253C221.357 253 221.013 252.864 220.741 252.592C220.469 252.304 220.333 251.952 220.333 251.536V245.392C220.333 244.864 220.261 244.392 220.117 243.976C219.989 243.544 219.749 243.2 219.397 242.944C219.045 242.688 218.541 242.56 217.885 242.56C217.245 242.56 216.701 242.688 216.253 242.944C215.821 243.2 215.485 243.544 215.245 243.976C215.021 244.392 214.909 244.864 214.909 245.392V251.536C214.909 251.952 214.773 252.304 214.501 252.592C214.229 252.864 213.885 253 213.469 253C213.053 253 212.709 252.864 212.437 252.592C212.165 252.304 212.029 251.952 212.029 251.536V241.624C212.029 241.208 212.165 240.864 212.437 240.592C212.709 240.304 213.053 240.16 213.469 240.16C213.885 240.16 214.229 240.304 214.501 240.592C214.773 240.864 214.909 241.208 214.909 241.624V242.656L214.549 242.584C214.693 242.312 214.901 242.024 215.173 241.72C215.445 241.4 215.765 241.104 216.133 240.832C216.501 240.56 216.917 240.344 217.381 240.184C217.845 240.008 218.349 239.92 218.893 239.92ZM226.71 240.4H232.398C232.782 240.4 233.102 240.528 233.358 240.784C233.614 241.04 233.742 241.36 233.742 241.744C233.742 242.112 233.614 242.424 233.358 242.68C233.102 242.92 232.782 243.04 232.398 243.04H226.71C226.326 243.04 226.006 242.912 225.75 242.656C225.494 242.4 225.366 242.08 225.366 241.696C225.366 241.328 225.494 241.024 225.75 240.784C226.006 240.528 226.326 240.4 226.71 240.4ZM229.278 237.4C229.694 237.4 230.03 237.544 230.286 237.832C230.558 238.104 230.694 238.448 230.694 238.864V249.544C230.694 249.768 230.734 249.952 230.814 250.096C230.91 250.24 231.03 250.344 231.174 250.408C231.334 250.472 231.502 250.504 231.678 250.504C231.87 250.504 232.046 250.472 232.206 250.408C232.366 250.328 232.55 250.288 232.758 250.288C232.982 250.288 233.182 250.392 233.358 250.6C233.55 250.808 233.646 251.096 233.646 251.464C233.646 251.912 233.398 252.28 232.902 252.568C232.422 252.856 231.902 253 231.342 253C231.006 253 230.63 252.976 230.214 252.928C229.814 252.864 229.43 252.728 229.062 252.52C228.71 252.296 228.414 251.96 228.174 251.512C227.934 251.064 227.814 250.448 227.814 249.664V238.864C227.814 238.448 227.95 238.104 228.222 237.832C228.51 237.544 228.862 237.4 229.278 237.4Z" fill="#E2E2E2"/>
<circle cx="157" cy="111" r="50" fill="#E2E2E2"/>
<path d="M171 95.25H143C141.067 95.25 139.5 96.817 139.5 98.75V116.25C139.5 118.183 141.067 119.75 143 119.75H171C172.933 119.75 174.5 118.183 174.5 116.25V98.75C174.5 96.817 172.933 95.25 171 95.25Z" stroke="#0B0F15" stroke-width="3" stroke-linecap="round" stroke-linejoin="round"/>
<path d="M150 126.75H164" stroke="#0B0F15" stroke-width="3" stroke-linecap="round" stroke-linejoin="round"/>
<path d="M157 119.75V126.75" stroke="#0B0F15" stroke-width="3" stroke-linecap="round" stroke-linejoin="round"/>
<path d="M383.647 219.24C382.527 219.24 381.519 219.104 380.623 218.832C379.727 218.544 378.871 218.048 378.055 217.344C377.847 217.168 377.687 216.968 377.575 216.744C377.463 216.52 377.407 216.296 377.407 216.072C377.407 215.704 377.535 215.384 377.791 215.112C378.063 214.824 378.399 214.68 378.799 214.68C379.103 214.68 379.375 214.776 379.615 214.968C380.223 215.464 380.823 215.84 381.415 216.096C382.023 216.352 382.767 216.48 383.647 216.48C384.239 216.48 384.783 216.392 385.279 216.216C385.775 216.024 386.175 215.776 386.479 215.472C386.783 215.152 386.935 214.792 386.935 214.392C386.935 213.912 386.791 213.504 386.503 213.168C386.215 212.832 385.775 212.552 385.183 212.328C384.591 212.088 383.839 211.904 382.927 211.776C382.063 211.648 381.303 211.456 380.647 211.2C379.991 210.928 379.439 210.592 378.991 210.192C378.559 209.776 378.231 209.296 378.007 208.752C377.783 208.192 377.671 207.568 377.671 206.88C377.671 205.84 377.935 204.952 378.463 204.216C379.007 203.48 379.735 202.92 380.647 202.536C381.559 202.152 382.567 201.96 383.671 201.96C384.711 201.96 385.671 202.12 386.551 202.44C387.447 202.744 388.175 203.136 388.735 203.616C389.199 203.984 389.431 204.408 389.431 204.888C389.431 205.24 389.295 205.56 389.023 205.848C388.751 206.136 388.431 206.28 388.063 206.28C387.823 206.28 387.607 206.208 387.415 206.064C387.159 205.84 386.815 205.632 386.383 205.44C385.951 205.232 385.495 205.064 385.015 204.936C384.535 204.792 384.087 204.72 383.671 204.72C382.983 204.72 382.399 204.808 381.919 204.984C381.455 205.16 381.103 205.4 380.863 205.704C380.623 206.008 380.503 206.36 380.503 206.76C380.503 207.24 380.639 207.64 380.911 207.96C381.199 208.264 381.607 208.512 382.135 208.704C382.663 208.88 383.295 209.04 384.031 209.184C384.991 209.36 385.831 209.568 386.551 209.808C387.287 210.048 387.895 210.36 388.375 210.744C388.855 211.112 389.215 211.584 389.455 212.16C389.695 212.72 389.815 213.408 389.815 214.224C389.815 215.264 389.527 216.16 388.951 216.912C388.375 217.664 387.615 218.24 386.671 218.64C385.743 219.04 384.735 219.24 383.647 219.24ZM398.615 219.24C397.255 219.24 396.071 218.96 395.063 218.4C394.071 217.824 393.303 217.048 392.759 216.072C392.231 215.096 391.967 213.992 391.967 212.76C391.967 211.32 392.255 210.096 392.831 209.088C393.423 208.064 394.191 207.28 395.135 206.736C396.079 206.192 397.079 205.92 398.135 205.92C398.951 205.92 399.719 206.088 400.439 206.424C401.175 206.76 401.823 207.224 402.383 207.816C402.943 208.392 403.383 209.064 403.703 209.832C404.039 210.6 404.207 211.416 404.207 212.28C404.191 212.664 404.039 212.976 403.751 213.216C403.463 213.456 403.127 213.576 402.743 213.576H393.575L392.855 211.176H401.663L401.135 211.656V211.008C401.103 210.544 400.935 210.128 400.631 209.76C400.343 209.392 399.975 209.104 399.527 208.896C399.095 208.672 398.631 208.56 398.135 208.56C397.655 208.56 397.207 208.624 396.791 208.752C396.375 208.88 396.015 209.096 395.711 209.4C395.407 209.704 395.167 210.112 394.991 210.624C394.815 211.136 394.727 211.784 394.727 212.568C394.727 213.432 394.903 214.168 395.255 214.776C395.623 215.368 396.087 215.824 396.647 216.144C397.223 216.448 397.831 216.6 398.471 216.6C399.063 216.6 399.535 216.552 399.887 216.456C400.239 216.36 400.519 216.248 400.727 216.12C400.951 215.976 401.151 215.856 401.327 215.76C401.615 215.616 401.887 215.544 402.143 215.544C402.495 215.544 402.783 215.664 403.007 215.904C403.247 216.144 403.367 216.424 403.367 216.744C403.367 217.176 403.143 217.568 402.695 217.92C402.279 218.272 401.695 218.584 400.943 218.856C400.191 219.112 399.415 219.24 398.615 219.24ZM417.569 205.92C417.985 205.92 418.329 206.056 418.601 206.328C418.873 206.6 419.009 206.952 419.009 207.384V217.536C419.009 217.952 418.873 218.304 418.601 218.592C418.329 218.864 417.985 219 417.569 219C417.153 219 416.809 218.864 416.537 218.592C416.265 218.304 416.129 217.952 416.129 217.536V216.36L416.657 216.576C416.657 216.784 416.545 217.04 416.321 217.344C416.097 217.632 415.793 217.92 415.409 218.208C415.025 218.496 414.569 218.744 414.041 218.952C413.529 219.144 412.969 219.24 412.361 219.24C411.257 219.24 410.257 218.96 409.361 218.4C408.465 217.824 407.753 217.04 407.225 216.048C406.713 215.04 406.457 213.888 406.457 212.592C406.457 211.28 406.713 210.128 407.225 209.136C407.753 208.128 408.457 207.344 409.337 206.784C410.217 206.208 411.193 205.92 412.265 205.92C412.953 205.92 413.585 206.024 414.161 206.232C414.737 206.44 415.233 206.704 415.649 207.024C416.081 207.344 416.409 207.672 416.633 208.008C416.873 208.328 416.993 208.6 416.993 208.824L416.129 209.136V207.384C416.129 206.968 416.265 206.624 416.537 206.352C416.809 206.064 417.153 205.92 417.569 205.92ZM412.721 216.6C413.425 216.6 414.041 216.424 414.569 216.072C415.097 215.72 415.505 215.24 415.793 214.632C416.097 214.024 416.249 213.344 416.249 212.592C416.249 211.824 416.097 211.136 415.793 210.528C415.505 209.92 415.097 209.44 414.569 209.088C414.041 208.736 413.425 208.56 412.721 208.56C412.033 208.56 411.425 208.736 410.897 209.088C410.369 209.44 409.953 209.92 409.649 210.528C409.361 211.136 409.217 211.824 409.217 212.592C409.217 213.344 409.361 214.024 409.649 214.632C409.953 215.24 410.369 215.72 410.897 216.072C411.425 216.424 412.033 216.6 412.721 216.6ZM423.807 219C423.391 219 423.047 218.864 422.775 218.592C422.503 218.304 422.367 217.952 422.367 217.536V207.624C422.367 207.208 422.503 206.864 422.775 206.592C423.047 206.304 423.391 206.16 423.807 206.16C424.223 206.16 424.567 206.304 424.839 206.592C425.111 206.864 425.247 207.208 425.247 207.624V209.88L425.079 208.272C425.255 207.888 425.479 207.552 425.751 207.264C426.039 206.96 426.359 206.712 426.711 206.52C427.063 206.312 427.439 206.16 427.839 206.064C428.239 205.968 428.639 205.92 429.039 205.92C429.519 205.92 429.919 206.056 430.239 206.328C430.575 206.6 430.743 206.92 430.743 207.288C430.743 207.816 430.607 208.2 430.335 208.44C430.063 208.664 429.767 208.776 429.447 208.776C429.143 208.776 428.863 208.72 428.607 208.608C428.367 208.496 428.087 208.44 427.767 208.44C427.479 208.44 427.183 208.512 426.879 208.656C426.591 208.784 426.319 208.992 426.063 209.28C425.823 209.568 425.623 209.928 425.463 210.36C425.319 210.776 425.247 211.272 425.247 211.848V217.536C425.247 217.952 425.111 218.304 424.839 218.592C424.567 218.864 424.223 219 423.807 219ZM438.187 205.92C439.099 205.92 439.891 206.016 440.563 206.208C441.251 206.4 441.779 206.672 442.147 207.024C442.531 207.36 442.723 207.768 442.723 208.248C442.723 208.568 442.627 208.872 442.435 209.16C442.243 209.432 441.963 209.568 441.595 209.568C441.339 209.568 441.123 209.536 440.947 209.472C440.787 209.392 440.643 209.296 440.515 209.184C440.387 209.072 440.235 208.968 440.059 208.872C439.899 208.776 439.651 208.704 439.315 208.656C438.995 208.592 438.755 208.56 438.595 208.56C437.779 208.56 437.083 208.736 436.507 209.088C435.947 209.44 435.515 209.92 435.211 210.528C434.907 211.12 434.755 211.808 434.755 212.592C434.755 213.36 434.907 214.048 435.211 214.656C435.531 215.248 435.963 215.72 436.507 216.072C437.067 216.424 437.707 216.6 438.427 216.6C438.827 216.6 439.171 216.576 439.459 216.528C439.747 216.48 439.987 216.408 440.179 216.312C440.403 216.184 440.603 216.048 440.779 215.904C440.955 215.76 441.219 215.688 441.571 215.688C441.987 215.688 442.307 215.824 442.531 216.096C442.755 216.352 442.867 216.672 442.867 217.056C442.867 217.456 442.643 217.824 442.195 218.16C441.747 218.48 441.155 218.744 440.419 218.952C439.699 219.144 438.915 219.24 438.067 219.24C436.803 219.24 435.707 218.952 434.779 218.376C433.851 217.784 433.131 216.984 432.619 215.976C432.123 214.968 431.875 213.84 431.875 212.592C431.875 211.28 432.139 210.128 432.667 209.136C433.211 208.128 433.955 207.344 434.899 206.784C435.859 206.208 436.955 205.92 438.187 205.92ZM451.927 205.92C453.079 205.92 453.951 206.168 454.543 206.664C455.151 207.16 455.567 207.824 455.791 208.656C456.015 209.472 456.127 210.384 456.127 211.392V217.536C456.127 217.952 455.991 218.304 455.719 218.592C455.447 218.864 455.103 219 454.687 219C454.271 219 453.927 218.864 453.655 218.592C453.383 218.304 453.247 217.952 453.247 217.536V211.392C453.247 210.864 453.183 210.392 453.055 209.976C452.927 209.544 452.695 209.2 452.359 208.944C452.023 208.688 451.543 208.56 450.919 208.56C450.311 208.56 449.791 208.688 449.359 208.944C448.927 209.2 448.599 209.544 448.375 209.976C448.167 210.392 448.063 210.864 448.063 211.392V217.536C448.063 217.952 447.927 218.304 447.655 218.592C447.383 218.864 447.039 219 446.623 219C446.207 219 445.863 218.864 445.591 218.592C445.319 218.304 445.183 217.952 445.183 217.536V202.704C445.183 202.288 445.319 201.944 445.591 201.672C445.863 201.384 446.207 201.24 446.623 201.24C447.039 201.24 447.383 201.384 447.655 201.672C447.927 201.944 448.063 202.288 448.063 202.704V208.656L447.703 208.584C447.847 208.312 448.047 208.024 448.303 207.72C448.559 207.4 448.871 207.104 449.239 206.832C449.607 206.56 450.015 206.344 450.463 206.184C450.911 206.008 451.399 205.92 451.927 205.92ZM468.156 202.2H476.196C476.612 202.2 476.956 202.336 477.228 202.608C477.516 202.864 477.66 203.2 477.66 203.616C477.66 204.016 477.516 204.344 477.228 204.6C476.956 204.84 476.612 204.96 476.196 204.96H469.476L469.692 204.552V209.232L469.5 209.04H475.116C475.532 209.04 475.876 209.176 476.148 209.448C476.436 209.704 476.58 210.04 476.58 210.456C476.58 210.856 476.436 211.184 476.148 211.44C475.876 211.68 475.532 211.8 475.116 211.8H469.572L469.692 211.608V216.456L469.5 216.24H476.196C476.612 216.24 476.956 216.384 477.228 216.672C477.516 216.944 477.66 217.264 477.66 217.632C477.66 218.032 477.516 218.36 477.228 218.616C476.956 218.872 476.612 219 476.196 219H468.156C467.74 219 467.388 218.864 467.1 218.592C466.828 218.304 466.692 217.952 466.692 217.536V203.664C466.692 203.248 466.828 202.904 467.1 202.632C467.388 202.344 467.74 202.2 468.156 202.2ZM487.291 205.92C488.475 205.92 489.371 206.168 489.979 206.664C490.603 207.16 491.027 207.824 491.251 208.656C491.491 209.472 491.611 210.384 491.611 211.392V217.536C491.611 217.952 491.475 218.304 491.203 218.592C490.931 218.864 490.587 219 490.171 219C489.755 219 489.411 218.864 489.139 218.592C488.867 218.304 488.731 217.952 488.731 217.536V211.392C488.731 210.864 488.659 210.392 488.515 209.976C488.387 209.544 488.147 209.2 487.795 208.944C487.443 208.688 486.939 208.56 486.283 208.56C485.643 208.56 485.099 208.688 484.651 208.944C484.219 209.2 483.883 209.544 483.643 209.976C483.419 210.392 483.307 210.864 483.307 211.392V217.536C483.307 217.952 483.171 218.304 482.899 218.592C482.627 218.864 482.283 219 481.867 219C481.451 219 481.107 218.864 480.835 218.592C480.563 218.304 480.427 217.952 480.427 217.536V207.624C480.427 207.208 480.563 206.864 480.835 206.592C481.107 206.304 481.451 206.16 481.867 206.16C482.283 206.16 482.627 206.304 482.899 206.592C483.171 206.864 483.307 207.208 483.307 207.624V208.656L482.947 208.584C483.091 208.312 483.299 208.024 483.571 207.72C483.843 207.4 484.163 207.104 484.531 206.832C484.899 206.56 485.315 206.344 485.779 206.184C486.243 206.008 486.747 205.92 487.291 205.92ZM500.292 205.92C500.964 205.92 501.58 206.024 502.14 206.232C502.7 206.44 503.18 206.704 503.58 207.024C503.996 207.344 504.316 207.672 504.54 208.008C504.78 208.328 504.9 208.6 504.9 208.824L504.276 209.136V207.384C504.276 206.968 504.412 206.624 504.684 206.352C504.956 206.064 505.3 205.92 505.716 205.92C506.132 205.92 506.476 206.056 506.748 206.328C507.02 206.6 507.156 206.952 507.156 207.384V218.064C507.156 219.456 506.852 220.568 506.244 221.4C505.652 222.248 504.868 222.856 503.892 223.224C502.916 223.608 501.868 223.8 500.748 223.8C500.428 223.8 500.012 223.76 499.5 223.68C498.988 223.6 498.5 223.504 498.036 223.392C497.572 223.28 497.22 223.176 496.98 223.08C496.5 222.872 496.164 222.608 495.972 222.288C495.796 221.984 495.764 221.656 495.876 221.304C496.02 220.84 496.252 220.52 496.572 220.344C496.892 220.184 497.228 220.168 497.58 220.296C497.74 220.344 498.004 220.44 498.372 220.584C498.74 220.728 499.14 220.856 499.572 220.968C500.02 221.096 500.412 221.16 500.748 221.16C501.948 221.16 502.836 220.92 503.412 220.44C503.988 219.96 504.276 219.296 504.276 218.448V216.36L504.564 216.576C504.564 216.784 504.452 217.04 504.228 217.344C504.02 217.632 503.724 217.92 503.34 218.208C502.972 218.496 502.532 218.744 502.02 218.952C501.508 219.144 500.964 219.24 500.388 219.24C499.252 219.24 498.228 218.96 497.316 218.4C496.404 217.824 495.684 217.04 495.156 216.048C494.628 215.04 494.364 213.888 494.364 212.592C494.364 211.28 494.628 210.128 495.156 209.136C495.684 208.128 496.396 207.344 497.292 206.784C498.188 206.208 499.188 205.92 500.292 205.92ZM500.748 208.56C500.028 208.56 499.396 208.736 498.852 209.088C498.308 209.44 497.884 209.92 497.58 210.528C497.276 211.136 497.124 211.824 497.124 212.592C497.124 213.344 497.276 214.024 497.58 214.632C497.884 215.24 498.308 215.72 498.852 216.072C499.396 216.424 500.028 216.6 500.748 216.6C501.484 216.6 502.124 216.424 502.668 216.072C503.212 215.72 503.636 215.24 503.94 214.632C504.244 214.024 504.396 213.344 504.396 212.592C504.396 211.824 504.244 211.136 503.94 210.528C503.636 209.92 503.212 209.44 502.668 209.088C502.124 208.736 501.484 208.56 500.748 208.56ZM513.22 217.536C513.22 217.952 513.084 218.304 512.812 218.592C512.54 218.864 512.196 219 511.78 219C511.364 219 511.02 218.864 510.748 218.592C510.476 218.304 510.34 217.952 510.34 217.536V207.624C510.34 207.208 510.476 206.864 510.748 206.592C511.02 206.304 511.364 206.16 511.78 206.16C512.196 206.16 512.54 206.304 512.812 206.592C513.084 206.864 513.22 207.208 513.22 207.624V217.536ZM511.756 204.6C511.212 204.6 510.828 204.512 510.604 204.336C510.38 204.16 510.268 203.848 510.268 203.4V202.944C510.268 202.48 510.388 202.168 510.628 202.008C510.884 201.832 511.268 201.744 511.78 201.744C512.34 201.744 512.732 201.832 512.956 202.008C513.18 202.184 513.292 202.496 513.292 202.944V203.4C513.292 203.864 513.172 204.184 512.932 204.36C512.692 204.52 512.3 204.6 511.756 204.6ZM523.284 205.92C524.468 205.92 525.364 206.168 525.972 206.664C526.596 207.16 527.02 207.824 527.244 208.656C527.484 209.472 527.604 210.384 527.604 211.392V217.536C527.604 217.952 527.468 218.304 527.196 218.592C526.924 218.864 526.58 219 526.164 219C525.748 219 525.404 218.864 525.132 218.592C524.86 218.304 524.724 217.952 524.724 217.536V211.392C524.724 210.864 524.652 210.392 524.508 209.976C524.38 209.544 524.14 209.2 523.788 208.944C523.436 208.688 522.932 208.56 522.276 208.56C521.636 208.56 521.092 208.688 520.644 208.944C520.212 209.2 519.876 209.544 519.636 209.976C519.412 210.392 519.3 210.864 519.3 211.392V217.536C519.3 217.952 519.164 218.304 518.892 218.592C518.62 218.864 518.276 219 517.86 219C517.444 219 517.1 218.864 516.828 218.592C516.556 218.304 516.42 217.952 516.42 217.536V207.624C516.42 207.208 516.556 206.864 516.828 206.592C517.1 206.304 517.444 206.16 517.86 206.16C518.276 206.16 518.62 206.304 518.892 206.592C519.164 206.864 519.3 207.208 519.3 207.624V208.656L518.94 208.584C519.084 208.312 519.292 208.024 519.564 207.72C519.836 207.4 520.156 207.104 520.524 206.832C520.892 206.56 521.308 206.344 521.772 206.184C522.236 206.008 522.74 205.92 523.284 205.92ZM537.005 219.24C535.645 219.24 534.461 218.96 533.453 218.4C532.461 217.824 531.693 217.048 531.149 216.072C530.621 215.096 530.357 213.992 530.357 212.76C530.357 211.32 530.645 210.096 531.221 209.088C531.813 208.064 532.581 207.28 533.525 206.736C534.469 206.192 535.469 205.92 536.525 205.92C537.341 205.92 538.109 206.088 538.829 206.424C539.565 206.76 540.213 207.224 540.773 207.816C541.333 208.392 541.773 209.064 542.093 209.832C542.429 210.6 542.597 211.416 542.597 212.28C542.581 212.664 542.429 212.976 542.141 213.216C541.853 213.456 541.517 213.576 541.133 213.576H531.965L531.245 211.176H540.053L539.525 211.656V211.008C539.493 210.544 539.325 210.128 539.021 209.76C538.733 209.392 538.365 209.104 537.917 208.896C537.485 208.672 537.021 208.56 536.525 208.56C536.045 208.56 535.597 208.624 535.181 208.752C534.765 208.88 534.405 209.096 534.101 209.4C533.797 209.704 533.557 210.112 533.381 210.624C533.205 211.136 533.117 211.784 533.117 212.568C533.117 213.432 533.293 214.168 533.645 214.776C534.013 215.368 534.477 215.824 535.037 216.144C535.613 216.448 536.221 216.6 536.861 216.6C537.453 216.6 537.925 216.552 538.277 216.456C538.629 216.36 538.909 216.248 539.117 216.12C539.341 215.976 539.541 215.856 539.717 215.76C540.005 215.616 540.277 215.544 540.533 215.544C540.885 215.544 541.173 215.664 541.397 215.904C541.637 216.144 541.757 216.424 541.757 216.744C541.757 217.176 541.533 217.568 541.085 217.92C540.669 218.272 540.085 218.584 539.333 218.856C538.581 219.112 537.805 219.24 537.005 219.24ZM406.951 244.6C406.951 245.8 406.751 246.92 406.351 247.96C405.951 249 405.383 249.92 404.647 250.72C403.927 251.504 403.063 252.12 402.055 252.568C401.063 253.016 399.975 253.24 398.791 253.24C397.607 253.24 396.519 253.016 395.527 252.568C394.535 252.12 393.671 251.504 392.935 250.72C392.215 249.92 391.655 249 391.255 247.96C390.855 246.92 390.655 245.8 390.655 244.6C390.655 243.4 390.855 242.28 391.255 241.24C391.655 240.2 392.215 239.288 392.935 238.504C393.671 237.704 394.535 237.08 395.527 236.632C396.519 236.184 397.607 235.96 398.791 235.96C399.975 235.96 401.063 236.184 402.055 236.632C403.063 237.08 403.927 237.704 404.647 238.504C405.383 239.288 405.951 240.2 406.351 241.24C406.751 242.28 406.951 243.4 406.951 244.6ZM403.831 244.6C403.831 243.528 403.615 242.56 403.183 241.696C402.751 240.816 402.159 240.12 401.407 239.608C400.655 239.096 399.783 238.84 398.791 238.84C397.799 238.84 396.927 239.096 396.175 239.608C395.423 240.12 394.831 240.808 394.399 241.672C393.983 242.536 393.775 243.512 393.775 244.6C393.775 245.672 393.983 246.648 394.399 247.528C394.831 248.392 395.423 249.08 396.175 249.592C396.927 250.104 397.799 250.36 398.791 250.36C399.783 250.36 400.655 250.104 401.407 249.592C402.159 249.08 402.751 248.392 403.183 247.528C403.615 246.648 403.831 245.672 403.831 244.6ZM416.353 239.92C417.473 239.92 418.473 240.208 419.353 240.784C420.249 241.344 420.953 242.12 421.465 243.112C421.993 244.104 422.257 245.256 422.257 246.568C422.257 247.88 421.993 249.04 421.465 250.048C420.953 251.04 420.257 251.824 419.377 252.4C418.513 252.96 417.537 253.24 416.449 253.24C415.809 253.24 415.209 253.136 414.649 252.928C414.089 252.72 413.593 252.456 413.161 252.136C412.745 251.816 412.417 251.496 412.177 251.176C411.953 250.84 411.841 250.56 411.841 250.336L412.585 250.024V256.336C412.585 256.752 412.449 257.096 412.177 257.368C411.905 257.656 411.561 257.8 411.145 257.8C410.729 257.8 410.385 257.664 410.113 257.392C409.841 257.12 409.705 256.768 409.705 256.336V241.624C409.705 241.208 409.841 240.864 410.113 240.592C410.385 240.304 410.729 240.16 411.145 240.16C411.561 240.16 411.905 240.304 412.177 240.592C412.449 240.864 412.585 241.208 412.585 241.624V242.8L412.177 242.584C412.177 242.376 412.289 242.128 412.513 241.84C412.737 241.536 413.041 241.24 413.425 240.952C413.809 240.648 414.249 240.4 414.745 240.208C415.257 240.016 415.793 239.92 416.353 239.92ZM415.993 242.56C415.289 242.56 414.673 242.736 414.145 243.088C413.617 243.44 413.201 243.92 412.897 244.528C412.609 245.12 412.465 245.8 412.465 246.568C412.465 247.32 412.609 248.008 412.897 248.632C413.201 249.24 413.617 249.72 414.145 250.072C414.673 250.424 415.289 250.6 415.993 250.6C416.697 250.6 417.305 250.424 417.817 250.072C418.345 249.72 418.753 249.24 419.041 248.632C419.345 248.008 419.497 247.32 419.497 246.568C419.497 245.8 419.345 245.12 419.041 244.528C418.753 243.92 418.345 243.44 417.817 243.088C417.305 242.736 416.697 242.56 415.993 242.56ZM427.728 251.536C427.728 251.952 427.592 252.304 427.32 252.592C427.048 252.864 426.704 253 426.288 253C425.872 253 425.528 252.864 425.256 252.592C424.984 252.304 424.848 251.952 424.848 251.536V241.624C424.848 241.208 424.984 240.864 425.256 240.592C425.528 240.304 425.872 240.16 426.288 240.16C426.704 240.16 427.048 240.304 427.32 240.592C427.592 240.864 427.728 241.208 427.728 241.624V251.536ZM426.264 238.6C425.72 238.6 425.336 238.512 425.112 238.336C424.888 238.16 424.776 237.848 424.776 237.4V236.944C424.776 236.48 424.896 236.168 425.136 236.008C425.392 235.832 425.776 235.744 426.288 235.744C426.848 235.744 427.24 235.832 427.464 236.008C427.688 236.184 427.8 236.496 427.8 236.944V237.4C427.8 237.864 427.68 238.184 427.44 238.36C427.2 238.52 426.808 238.6 426.264 238.6ZM437.672 239.92C438.952 239.92 439.896 240.232 440.504 240.856C441.112 241.464 441.512 242.256 441.704 243.232L441.296 243.016L441.488 242.632C441.68 242.264 441.976 241.872 442.376 241.456C442.776 241.024 443.256 240.664 443.816 240.376C444.392 240.072 445.032 239.92 445.736 239.92C446.888 239.92 447.76 240.168 448.352 240.664C448.96 241.16 449.376 241.824 449.6 242.656C449.824 243.472 449.936 244.384 449.936 245.392V251.536C449.936 251.952 449.8 252.304 449.528 252.592C449.256 252.864 448.912 253 448.496 253C448.08 253 447.736 252.864 447.464 252.592C447.192 252.304 447.056 251.952 447.056 251.536V245.392C447.056 244.864 446.992 244.392 446.864 243.976C446.736 243.544 446.504 243.2 446.168 242.944C445.832 242.688 445.352 242.56 444.728 242.56C444.12 242.56 443.6 242.688 443.168 242.944C442.736 243.2 442.408 243.544 442.184 243.976C441.976 244.392 441.872 244.864 441.872 245.392V251.536C441.872 251.952 441.736 252.304 441.464 252.592C441.192 252.864 440.848 253 440.432 253C440.016 253 439.672 252.864 439.4 252.592C439.128 252.304 438.992 251.952 438.992 251.536V245.392C438.992 244.864 438.928 244.392 438.8 243.976C438.672 243.544 438.44 243.2 438.104 242.944C437.768 242.688 437.288 242.56 436.664 242.56C436.056 242.56 435.536 242.688 435.104 242.944C434.672 243.2 434.344 243.544 434.12 243.976C433.912 244.392 433.808 244.864 433.808 245.392V251.536C433.808 251.952 433.672 252.304 433.4 252.592C433.128 252.864 432.784 253 432.368 253C431.952 253 431.608 252.864 431.336 252.592C431.064 252.304 430.928 251.952 430.928 251.536V241.624C430.928 241.208 431.064 240.864 431.336 240.592C431.608 240.304 431.952 240.16 432.368 240.16C432.784 240.16 433.128 240.304 433.4 240.592C433.672 240.864 433.808 241.208 433.808 241.624V242.656L433.448 242.584C433.592 242.312 433.792 242.024 434.048 241.72C434.304 241.4 434.616 241.104 434.984 240.832C435.352 240.56 435.76 240.344 436.208 240.184C436.656 240.008 437.144 239.92 437.672 239.92ZM456.005 251.536C456.005 251.952 455.869 252.304 455.597 252.592C455.325 252.864 454.981 253 454.565 253C454.149 253 453.805 252.864 453.533 252.592C453.261 252.304 453.125 251.952 453.125 251.536V241.624C453.125 241.208 453.261 240.864 453.533 240.592C453.805 240.304 454.149 240.16 454.565 240.16C454.981 240.16 455.325 240.304 455.597 240.592C455.869 240.864 456.005 241.208 456.005 241.624V251.536ZM454.541 238.6C453.997 238.6 453.613 238.512 453.389 238.336C453.165 238.16 453.053 237.848 453.053 237.4V236.944C453.053 236.48 453.173 236.168 453.413 236.008C453.669 235.832 454.053 235.744 454.565 235.744C455.125 235.744 455.517 235.832 455.741 236.008C455.965 236.184 456.077 236.496 456.077 236.944V237.4C456.077 237.864 455.957 238.184 455.717 238.36C455.477 238.52 455.085 238.6 454.541 238.6ZM467.389 250.36C467.773 250.36 468.093 250.488 468.349 250.744C468.605 250.984 468.733 251.296 468.733 251.68C468.733 252.048 468.605 252.36 468.349 252.616C468.093 252.872 467.773 253 467.389 253H459.661C459.261 253 458.941 252.856 458.701 252.568C458.461 252.28 458.349 251.992 458.365 251.704C458.381 251.464 458.413 251.256 458.461 251.08C458.509 250.888 458.629 250.672 458.821 250.432L464.797 242.704L464.749 243.04H459.877C459.493 243.04 459.173 242.912 458.917 242.656C458.661 242.4 458.533 242.08 458.533 241.696C458.533 241.328 458.661 241.024 458.917 240.784C459.173 240.528 459.493 240.4 459.877 240.4H467.269C467.637 240.4 467.949 240.536 468.205 240.808C468.461 241.08 468.573 241.424 468.541 241.84C468.525 242 468.493 242.16 468.445 242.32C468.413 242.48 468.309 242.672 468.133 242.896L462.253 250.504V250.36H467.389ZM481.582 239.92C481.998 239.92 482.342 240.056 482.614 240.328C482.886 240.6 483.022 240.952 483.022 241.384V251.536C483.022 251.952 482.886 252.304 482.614 252.592C482.342 252.864 481.998 253 481.582 253C481.166 253 480.822 252.864 480.55 252.592C480.278 252.304 480.142 251.952 480.142 251.536V250.36L480.67 250.576C480.67 250.784 480.558 251.04 480.334 251.344C480.11 251.632 479.806 251.92 479.422 252.208C479.038 252.496 478.582 252.744 478.054 252.952C477.542 253.144 476.982 253.24 476.374 253.24C475.27 253.24 474.27 252.96 473.374 252.4C472.478 251.824 471.766 251.04 471.238 250.048C470.726 249.04 470.47 247.888 470.47 246.592C470.47 245.28 470.726 244.128 471.238 243.136C471.766 242.128 472.47 241.344 473.35 240.784C474.23 240.208 475.206 239.92 476.278 239.92C476.966 239.92 477.598 240.024 478.174 240.232C478.75 240.44 479.246 240.704 479.662 241.024C480.094 241.344 480.422 241.672 480.646 242.008C480.886 242.328 481.006 242.6 481.006 242.824L480.142 243.136V241.384C480.142 240.968 480.278 240.624 480.55 240.352C480.822 240.064 481.166 239.92 481.582 239.92ZM476.734 250.6C477.438 250.6 478.054 250.424 478.582 250.072C479.11 249.72 479.518 249.24 479.806 248.632C480.11 248.024 480.262 247.344 480.262 246.592C480.262 245.824 480.11 245.136 479.806 244.528C479.518 243.92 479.11 243.44 478.582 243.088C478.054 242.736 477.438 242.56 476.734 242.56C476.046 242.56 475.438 242.736 474.91 243.088C474.382 243.44 473.966 243.92 473.662 244.528C473.374 245.136 473.23 245.824 473.23 246.592C473.23 247.344 473.374 248.024 473.662 248.632C473.966 249.24 474.382 249.72 474.91 250.072C475.438 250.424 476.046 250.6 476.734 250.6ZM486.524 240.4H492.212C492.596 240.4 492.916 240.528 493.172 240.784C493.428 241.04 493.556 241.36 493.556 241.744C493.556 242.112 493.428 242.424 493.172 242.68C492.916 242.92 492.596 243.04 492.212 243.04H486.524C486.14 243.04 485.82 242.912 485.564 242.656C485.308 242.4 485.18 242.08 485.18 241.696C485.18 241.328 485.308 241.024 485.564 240.784C485.82 240.528 486.14 240.4 486.524 240.4ZM489.092 237.4C489.508 237.4 489.844 237.544 490.1 237.832C490.372 238.104 490.508 238.448 490.508 238.864V249.544C490.508 249.768 490.548 249.952 490.628 250.096C490.724 250.24 490.844 250.344 490.988 250.408C491.148 250.472 491.316 250.504 491.492 250.504C491.684 250.504 491.86 250.472 492.02 250.408C492.18 250.328 492.364 250.288 492.572 250.288C492.796 250.288 492.996 250.392 493.172 250.6C493.364 250.808 493.46 251.096 493.46 251.464C493.46 251.912 493.212 252.28 492.716 252.568C492.236 252.856 491.716 253 491.156 253C490.82 253 490.444 252.976 490.028 252.928C489.628 252.864 489.244 252.728 488.876 252.52C488.524 252.296 488.228 251.96 487.988 251.512C487.748 251.064 487.628 250.448 487.628 249.664V238.864C487.628 238.448 487.764 238.104 488.036 237.832C488.324 237.544 488.676 237.4 489.092 237.4ZM499.152 251.536C499.152 251.952 499.016 252.304 498.744 252.592C498.472 252.864 498.128 253 497.712 253C497.296 253 496.952 252.864 496.68 252.592C496.408 252.304 496.272 251.952 496.272 251.536V241.624C496.272 241.208 496.408 240.864 496.68 240.592C496.952 240.304 497.296 240.16 497.712 240.16C498.128 240.16 498.472 240.304 498.744 240.592C499.016 240.864 499.152 241.208 499.152 241.624V251.536ZM497.688 238.6C497.144 238.6 496.76 238.512 496.536 238.336C496.312 238.16 496.2 237.848 496.2 237.4V236.944C496.2 236.48 496.32 236.168 496.56 236.008C496.816 235.832 497.2 235.744 497.712 235.744C498.272 235.744 498.664 235.832 498.888 236.008C499.112 236.184 499.224 236.496 499.224 236.944V237.4C499.224 237.864 499.104 238.184 498.864 238.36C498.624 238.52 498.232 238.6 497.688 238.6ZM514.808 246.592C514.808 247.904 514.512 249.064 513.92 250.072C513.344 251.064 512.56 251.84 511.568 252.4C510.592 252.96 509.496 253.24 508.28 253.24C507.064 253.24 505.96 252.96 504.968 252.4C503.992 251.84 503.208 251.064 502.616 250.072C502.04 249.064 501.752 247.904 501.752 246.592C501.752 245.28 502.04 244.128 502.616 243.136C503.208 242.128 503.992 241.344 504.968 240.784C505.96 240.208 507.064 239.92 508.28 239.92C509.496 239.92 510.592 240.208 511.568 240.784C512.56 241.344 513.344 242.128 513.92 243.136C514.512 244.128 514.808 245.28 514.808 246.592ZM511.928 246.592C511.928 245.776 511.76 245.072 511.424 244.48C511.104 243.872 510.664 243.4 510.104 243.064C509.56 242.728 508.952 242.56 508.28 242.56C507.608 242.56 506.992 242.728 506.432 243.064C505.888 243.4 505.448 243.872 505.112 244.48C504.792 245.072 504.632 245.776 504.632 246.592C504.632 247.392 504.792 248.096 505.112 248.704C505.448 249.296 505.888 249.76 506.432 250.096C506.992 250.432 507.608 250.6 508.28 250.6C508.952 250.6 509.56 250.432 510.104 250.096C510.664 249.76 511.104 249.296 511.424 248.704C511.76 248.096 511.928 247.392 511.928 246.592ZM524.433 239.92C525.617 239.92 526.513 240.168 527.121 240.664C527.745 241.16 528.169 241.824 528.393 242.656C528.633 243.472 528.753 244.384 528.753 245.392V251.536C528.753 251.952 528.617 252.304 528.345 252.592C528.073 252.864 527.729 253 527.313 253C526.897 253 526.553 252.864 526.281 252.592C526.009 252.304 525.873 251.952 525.873 251.536V245.392C525.873 244.864 525.801 244.392 525.657 243.976C525.529 243.544 525.289 243.2 524.937 242.944C524.585 242.688 524.081 242.56 523.425 242.56C522.785 242.56 522.241 242.688 521.793 242.944C521.361 243.2 521.025 243.544 520.785 243.976C520.561 244.392 520.449 244.864 520.449 245.392V251.536C520.449 251.952 520.313 252.304 520.041 252.592C519.769 252.864 519.425 253 519.009 253C518.593 253 518.249 252.864 517.977 252.592C517.705 252.304 517.569 251.952 517.569 251.536V241.624C517.569 241.208 517.705 240.864 517.977 240.592C518.249 240.304 518.593 240.16 519.009 240.16C519.425 240.16 519.769 240.304 520.041 240.592C520.313 240.864 520.449 241.208 520.449 241.624V242.656L520.089 242.584C520.233 242.312 520.441 242.024 520.713 241.72C520.985 241.4 521.305 241.104 521.673 240.832C522.041 240.56 522.457 240.344 522.921 240.184C523.385 240.008 523.889 239.92 524.433 239.92Z" fill="#E2E2E2"/>
<circle cx="460" cy="111" r="50" fill="#FF4646"/>
<g clip-path="url(#clip0_1_1086)">
<path d="M460 116.25C462.899 116.25 465.25 113.899 465.25 111C465.25 108.101 462.899 105.75 460 105.75C457.101 105.75 454.75 108.101 454.75 111C454.75 113.899 457.101 116.25 460 116.25Z" stroke="#0B0F15" stroke-width="3" stroke-linecap="round" stroke-linejoin="round"/>
<path d="M472.95 116.25C472.717 116.778 472.648 117.363 472.75 117.931C472.853 118.499 473.124 119.023 473.527 119.435L473.633 119.54C473.958 119.865 474.216 120.251 474.392 120.676C474.568 121.101 474.659 121.556 474.659 122.016C474.659 122.476 474.568 122.932 474.392 123.357C474.216 123.781 473.958 124.167 473.633 124.492C473.307 124.818 472.921 125.076 472.497 125.252C472.072 125.428 471.616 125.519 471.156 125.519C470.696 125.519 470.241 125.428 469.816 125.252C469.391 125.076 469.005 124.818 468.68 124.492L468.575 124.387C468.163 123.984 467.639 123.713 467.071 123.61C466.503 123.508 465.918 123.577 465.39 123.81C464.872 124.032 464.431 124.4 464.12 124.87C463.809 125.339 463.642 125.889 463.64 126.452V126.75C463.64 127.678 463.271 128.568 462.615 129.225C461.958 129.881 461.068 130.25 460.14 130.25C459.212 130.25 458.322 129.881 457.665 129.225C457.009 128.568 456.64 127.678 456.64 126.75V126.592C456.626 126.013 456.439 125.451 456.102 124.98C455.765 124.509 455.294 124.15 454.75 123.95C454.222 123.717 453.637 123.648 453.069 123.75C452.501 123.853 451.977 124.124 451.565 124.527L451.46 124.633C451.135 124.958 450.749 125.216 450.324 125.392C449.899 125.568 449.444 125.659 448.984 125.659C448.524 125.659 448.068 125.568 447.643 125.392C447.219 125.216 446.833 124.958 446.507 124.633C446.182 124.307 445.924 123.921 445.748 123.497C445.572 123.072 445.481 122.616 445.481 122.156C445.481 121.696 445.572 121.241 445.748 120.816C445.924 120.391 446.182 120.005 446.507 119.68L446.612 119.575C447.016 119.163 447.287 118.639 447.39 118.071C447.492 117.503 447.423 116.918 447.19 116.39C446.968 115.872 446.6 115.431 446.13 115.12C445.661 114.809 445.111 114.642 444.548 114.64H444.25C443.322 114.64 442.432 114.271 441.775 113.615C441.119 112.958 440.75 112.068 440.75 111.14C440.75 110.212 441.119 109.322 441.775 108.665C442.432 108.009 443.322 107.64 444.25 107.64H444.407C444.987 107.626 445.549 107.439 446.02 107.102C446.491 106.765 446.85 106.294 447.05 105.75C447.283 105.222 447.352 104.637 447.25 104.069C447.147 103.501 446.876 102.977 446.472 102.565L446.368 102.46C446.042 102.135 445.784 101.749 445.608 101.324C445.432 100.899 445.341 100.444 445.341 99.9837C445.341 99.5238 445.432 99.0684 445.608 98.6435C445.784 98.2186 446.042 97.8326 446.368 97.5075C446.693 97.1821 447.079 96.9239 447.503 96.7478C447.928 96.5717 448.384 96.481 448.844 96.481C449.304 96.481 449.759 96.5717 450.184 96.7478C450.609 96.9239 450.995 97.1821 451.32 97.5075L451.425 97.6125C451.837 98.0159 452.361 98.2866 452.929 98.3895C453.497 98.4924 454.082 98.423 454.61 98.19H454.75C455.268 97.9682 455.709 97.5998 456.02 97.1303C456.331 96.6608 456.498 96.1106 456.5 95.5475V95.25C456.5 94.3217 456.869 93.4315 457.525 92.7751C458.182 92.1187 459.072 91.75 460 91.75C460.928 91.75 461.818 92.1187 462.475 92.7751C463.131 93.4315 463.5 94.3217 463.5 95.25V95.4075C463.502 95.9706 463.669 96.5208 463.98 96.9903C464.291 97.4598 464.732 97.8282 465.25 98.05C465.778 98.283 466.363 98.3524 466.931 98.2495C467.499 98.1466 468.023 97.8759 468.435 97.4725L468.54 97.3675C468.865 97.0421 469.251 96.7839 469.676 96.6078C470.101 96.4317 470.556 96.341 471.016 96.341C471.476 96.341 471.932 96.4317 472.357 96.6078C472.781 96.7839 473.167 97.0421 473.492 97.3675C473.818 97.6926 474.076 98.0786 474.252 98.5035C474.428 98.9284 474.519 99.3838 474.519 99.8438C474.519 100.304 474.428 100.759 474.252 101.184C474.076 101.609 473.818 101.995 473.492 102.32L473.387 102.425C472.984 102.837 472.713 103.361 472.61 103.929C472.508 104.497 472.577 105.082 472.81 105.61V105.75C473.032 106.268 473.4 106.709 473.87 107.02C474.339 107.331 474.889 107.498 475.452 107.5H475.75C476.678 107.5 477.568 107.869 478.225 108.525C478.881 109.182 479.25 110.072 479.25 111C479.25 111.928 478.881 112.818 478.225 113.475C477.568 114.131 476.678 114.5 475.75 114.5H475.592C475.029 114.502 474.479 114.669 474.01 114.98C473.54 115.291 473.172 115.732 472.95 116.25V116.25Z" stroke="#0B0F15" stroke-width="3" stroke-linecap="round" stroke-linejoin="round"/>
</g>
<rect x="329.5" y="26.5" width="261" height="268" rx="29.5" stroke="white" stroke-opacity="0.1"/>
<defs>
<filter id="filter0_d_1_1086" x="0" y="0" width="322" height="329" filterUnits="userSpaceOnUse" color-interpolation-filters="sRGB">
<feFlood flood-opacity="0" result="BackgroundImageFix"/>
<feColorMatrix in="SourceAlpha" type="matrix" values="0 0 0 0 0 0 0 0 0 0 0 0 0 0 0 0 0 0 127 0" result="hardAlpha"/>
<feOffset dx="4" dy="4"/>
<feGaussianBlur stdDeviation="15"/>
<feComposite in2="hardAlpha" operator="out"/>
<feColorMatrix type="matrix" values="0 0 0 0 0 0 0 0 0 0 0 0 0 0 0 0 0 0 0.1 0"/>
<feBlend mode="normal" in2="BackgroundImageFix" result="effect1_dropShadow_1_1086"/>
<feBlend mode="normal" in="SourceGraphic" in2="effect1_dropShadow_1_1086" result="shape"/>
</filter>
<clipPath id="clip0_1_1086">
<rect width="42" height="42" fill="white" transform="translate(439 90)"/>
</clipPath>
</defs>
</svg>
